<svg width="686" height="165" viewBox="0 0 686 165" fill="none" xmlns="http://www.w3.org/2000/svg">
<path d="M50.232 113.196C41.7803 113.196 34.1259 111.362 27.2688 107.694C20.4915 103.947 15.1493 98.8041 11.2424 92.266C7.4152 85.7279 5.5016 78.3525 5.5016 70.14C5.5016 61.9275 7.45507 54.5521 11.362 48.014C15.2689 41.4759 20.6111 36.3729 27.3884 32.7052C34.2455 28.9577 41.8999 27.084 50.3516 27.084C57.2087 27.084 63.4677 28.28 69.1288 30.672C74.7899 33.064 79.5739 36.5324 83.4808 41.0772L73.4344 50.5256C67.3747 43.9875 59.9196 40.7184 51.0692 40.7184C45.3284 40.7184 40.1856 41.9941 35.6408 44.5456C31.096 47.0173 27.5479 50.4857 24.9964 54.9508C22.4449 59.4159 21.1692 64.4789 21.1692 70.14C21.1692 75.8011 22.4449 80.8641 24.9964 85.3292C27.5479 89.7943 31.096 93.3025 35.6408 95.854C40.1856 98.3257 45.3284 99.5616 51.0692 99.5616C59.9196 99.5616 67.3747 96.2527 73.4344 89.6348L83.4808 99.2028C79.5739 103.748 74.75 107.216 69.0092 109.608C63.3481 112 57.0891 113.196 50.232 113.196Z" fill="#FE7200"/>
<path d="M136.667 113.196C128.136 113.196 120.442 111.362 113.584 107.694C106.727 103.947 101.345 98.8041 97.4385 92.266C93.5316 85.6481 91.5781 78.2728 91.5781 70.14C91.5781 62.0072 93.5316 54.6717 97.4385 48.1336C101.345 41.5157 106.727 36.3729 113.584 32.7052C120.442 28.9577 128.136 27.084 136.667 27.084C145.199 27.084 152.893 28.9577 159.75 32.7052C166.607 36.3729 171.989 41.4759 175.896 48.014C179.803 54.5521 181.756 61.9275 181.756 70.14C181.756 78.3525 179.803 85.7279 175.896 92.266C171.989 98.8041 166.607 103.947 159.75 107.694C152.893 111.362 145.199 113.196 136.667 113.196ZM136.667 99.5616C142.249 99.5616 147.272 98.3257 151.737 95.854C156.202 93.3025 159.71 89.7943 162.262 85.3292C164.813 80.7844 166.089 75.7213 166.089 70.14C166.089 64.5587 164.813 59.5355 162.262 55.0704C159.71 50.5256 156.202 47.0173 151.737 44.5456C147.272 41.9941 142.249 40.7184 136.667 40.7184C131.086 40.7184 126.063 41.9941 121.598 44.5456C117.133 47.0173 113.624 50.5256 111.073 55.0704C108.521 59.5355 107.246 64.5587 107.246 70.14C107.246 75.7213 108.521 80.7844 111.073 85.3292C113.624 89.7943 117.133 93.3025 121.598 95.854C126.063 98.3257 131.086 99.5616 136.667 99.5616ZM229.803 76.718H214.255V112H198.946V28.28H214.255V63.3228H230.281L254.321 28.28H270.826L242.241 68.8244L271.902 112H254.321L229.803 76.718ZM320.973 113.196C312.441 113.196 304.747 111.362 297.89 107.694C291.033 103.947 285.651 98.8041 281.744 92.266C277.837 85.6481 275.884 78.2728 275.884 70.14C275.884 62.0072 277.837 54.6717 281.744 48.1336C285.651 41.5157 291.033 36.3729 297.89 32.7052C304.747 28.9577 312.441 27.084 320.973 27.084C329.504 27.084 337.198 28.9577 344.056 32.7052C350.913 36.3729 356.295 41.4759 360.202 48.014C364.108 54.5521 366.062 61.9275 366.062 70.14C366.062 78.3525 364.108 85.7279 360.202 92.266C356.295 98.8041 350.913 103.947 344.056 107.694C337.198 111.362 329.504 113.196 320.973 113.196ZM320.973 99.5616C326.554 99.5616 331.577 98.3257 336.042 95.854C340.507 93.3025 344.016 89.7943 346.567 85.3292C349.119 80.7844 350.394 75.7213 350.394 70.14C350.394 64.5587 349.119 59.5355 346.567 55.0704C344.016 50.5256 340.507 47.0173 336.042 44.5456C331.577 41.9941 326.554 40.7184 320.973 40.7184C315.391 40.7184 310.368 41.9941 305.903 44.5456C301.438 47.0173 297.93 50.5256 295.378 55.0704C292.827 59.5355 291.551 64.5587 291.551 70.14C291.551 75.7213 292.827 80.7844 295.378 85.3292C297.93 89.7943 301.438 93.3025 305.903 95.854C310.368 98.3257 315.391 99.5616 320.973 99.5616ZM452.437 28.28V112H437.128V41.436H404.118L403.401 62.366C403.002 74.0868 402.045 83.6149 400.53 90.9504C399.015 98.2061 396.583 103.748 393.235 107.575C389.886 111.322 385.261 113.196 379.361 113.196C377.288 113.196 374.457 112.797 370.869 112L371.946 98.4852C372.982 98.8041 374.178 98.9636 375.534 98.9636C380.397 98.9636 383.826 96.0932 385.819 90.3524C387.892 84.5319 389.168 75.4024 389.647 62.964L390.843 28.28H452.437ZM470.846 72.532H503.736V84.9704H470.846V72.532ZM560.518 113.196C552.066 113.196 544.411 111.362 537.554 107.694C530.777 103.947 525.435 98.8041 521.528 92.266C517.701 85.7279 515.787 78.3525 515.787 70.14C515.787 61.9275 517.741 54.5521 521.648 48.014C525.554 41.4759 530.897 36.3729 537.674 32.7052C544.531 28.9577 552.185 27.084 560.637 27.084C567.494 27.084 573.753 28.28 579.414 30.672C585.075 33.064 589.859 36.5324 593.766 41.0772L583.72 50.5256C577.66 43.9875 570.205 40.7184 561.355 40.7184C555.614 40.7184 550.471 41.9941 545.926 44.5456C541.382 47.0173 537.833 50.4857 535.282 54.9508C532.73 59.4159 531.455 64.4789 531.455 70.14C531.455 75.8011 532.73 80.8641 535.282 85.3292C537.833 89.7943 541.382 93.3025 545.926 95.854C550.471 98.3257 555.614 99.5616 561.355 99.5616C570.205 99.5616 577.66 96.2527 583.72 89.6348L593.766 99.2028C589.859 103.748 585.036 107.216 579.295 109.608C573.634 112 567.375 113.196 560.518 113.196ZM663.338 68.4656C668.68 69.9008 672.747 72.3725 675.537 75.8808C678.328 79.3093 679.723 83.6149 679.723 88.7976C679.723 96.1331 677.012 101.834 671.59 105.9C666.169 109.967 658.315 112 648.029 112H608.322V28.28H645.757C655.165 28.28 662.501 30.1537 667.763 33.9012C673.026 37.6487 675.657 42.9509 675.657 49.808C675.657 54.1933 674.58 57.9807 672.428 61.17C670.355 64.3593 667.325 66.7912 663.338 68.4656ZM623.631 64.0404H644.441C649.464 64.0404 653.292 63.0437 655.923 61.0504C658.554 59.0571 659.87 56.1069 659.87 52.2C659.87 48.2931 658.554 45.3429 655.923 43.3496C653.292 41.2765 649.464 40.24 644.441 40.24H623.631V64.0404ZM647.551 100.04C658.554 100.04 664.056 95.8939 664.056 87.6016C664.056 79.4688 658.554 75.4024 647.551 75.4024H623.631V100.04H647.551Z" fill="#3F3F3F"/>
<path d="M62.5648 137.054V158H59.6768V149.549C58.7851 150.218 57.9339 150.694 57.1232 150.978C56.3328 151.261 55.4107 151.403 54.3568 151.403C52.4923 151.403 51.0027 150.836 49.888 149.701C48.7733 148.566 48.216 147.036 48.216 145.11V137.054H51.104V144.898C51.104 147.593 52.4315 148.941 55.0864 148.941C56.9307 148.941 58.4608 148.353 59.6768 147.178V137.054H62.5648ZM83.4589 158L81.8781 152.741H73.9437L72.3629 158H69.4445L76.1629 137.054H79.8109L86.4989 158H83.4589ZM74.6429 150.4H81.1789L77.9261 139.456L74.6429 150.4ZM100.406 136.69C101.663 136.69 102.717 136.852 103.568 137.176C104.439 137.5 105.321 138.027 106.213 138.757L104.632 140.611C103.355 139.578 102.007 139.061 100.589 139.061C98.8456 139.061 97.4371 139.73 96.3629 141.067C95.3091 142.405 94.7821 144.553 94.7821 147.512C94.7821 150.39 95.3091 152.518 96.3629 153.896C97.4168 155.254 98.8152 155.933 100.558 155.933C101.45 155.933 102.23 155.781 102.899 155.477C103.568 155.173 104.277 154.747 105.027 154.2L106.456 156.024C105.807 156.693 104.976 157.25 103.963 157.696C102.95 158.142 101.784 158.365 100.467 158.365C98.7645 158.365 97.2445 157.949 95.9069 157.118C94.5896 156.267 93.556 155.031 92.8061 153.41C92.0765 151.768 91.7117 149.802 91.7117 147.512C91.7117 145.222 92.0968 143.266 92.8669 141.645C93.6371 140.003 94.6808 138.767 95.9981 137.936C97.3155 137.105 98.7848 136.69 100.406 136.69ZM125.815 137.054L125.511 139.517H119.704V158H116.816V139.517H110.858V137.054H125.815ZM144.498 158V148.181H135.682V158H132.794V137.054H135.682V145.81H144.498V137.054H147.386V158H144.498ZM168.262 158L166.681 152.741H158.747L157.166 158H154.247L160.966 137.054H164.614L171.302 158H168.262ZM159.446 150.4H165.982L162.729 139.456L159.446 150.4ZM190.522 137.054V158H187.634V149.762H183.378L179.335 158H176.052L180.612 149.245C179.294 148.738 178.291 147.988 177.602 146.995C176.933 146.002 176.599 144.837 176.599 143.499C176.599 141.452 177.278 139.871 178.636 138.757C179.993 137.622 181.98 137.054 184.594 137.054H190.522ZM187.634 147.482V139.304H184.776C182.973 139.304 181.665 139.649 180.855 140.338C180.064 141.027 179.669 142.081 179.669 143.499C179.669 144.817 180.044 145.81 180.794 146.478C181.564 147.147 182.588 147.482 183.864 147.482H187.634ZM219.435 136.69C221.198 136.69 222.739 137.115 224.056 137.966C225.394 138.797 226.427 140.023 227.157 141.645C227.907 143.266 228.282 145.232 228.282 147.542C228.282 149.812 227.907 151.758 227.157 153.379C226.427 155.001 225.394 156.237 224.056 157.088C222.739 157.939 221.198 158.365 219.435 158.365C217.672 158.365 216.122 157.949 214.784 157.118C213.467 156.287 212.433 155.061 211.683 153.44C210.954 151.819 210.589 149.863 210.589 147.573C210.589 145.323 210.954 143.378 211.683 141.736C212.433 140.094 213.477 138.848 214.814 137.997C216.152 137.125 217.692 136.69 219.435 136.69ZM219.435 139.061C217.611 139.061 216.193 139.75 215.179 141.128C214.166 142.506 213.659 144.654 213.659 147.573C213.659 150.471 214.166 152.599 215.179 153.957C216.213 155.315 217.631 155.994 219.435 155.994C223.286 155.994 225.211 153.177 225.211 147.542C225.211 141.888 223.286 139.061 219.435 139.061ZM243.078 146.691L249.462 158H246.178L241.345 148.728L236.45 158H233.35L239.642 146.843L233.897 137.054H237.18L241.406 144.928L245.662 137.054H248.762L243.078 146.691ZM261.805 137.054C264.399 137.054 266.406 137.602 267.824 138.696C269.243 139.77 269.952 141.381 269.952 143.53C269.952 145.82 269.213 147.522 267.733 148.637C266.254 149.751 264.288 150.309 261.836 150.309H259.191V158H256.303V137.054H261.805ZM261.714 148.029C263.396 148.029 264.673 147.705 265.544 147.056C266.436 146.407 266.882 145.242 266.882 143.56C266.882 142.06 266.436 140.976 265.544 140.307C264.673 139.638 263.416 139.304 261.775 139.304H259.191V148.029H261.714ZM286.961 158L285.38 152.741H277.446L275.865 158H272.946L279.665 137.054H283.313L290.001 158H286.961ZM278.145 150.4H284.681L281.428 139.456L278.145 150.4ZM308.583 158V148.181H299.767V158H296.879V137.054H299.767V145.81H308.583V137.054H311.471V158H308.583ZM332.893 158V148.181H324.077V158H321.189V137.054H324.077V145.81H332.893V137.054H335.781V158H332.893ZM356.656 158L355.076 152.741H347.141L345.56 158H342.642L349.36 137.054H353.008L359.696 158H356.656ZM347.84 150.4H354.376L351.124 139.456L347.84 150.4ZM378.916 137.054V158H376.028V149.762H371.772L367.729 158H364.446L369.006 149.245C367.689 148.738 366.686 147.988 365.996 146.995C365.328 146.002 364.993 144.837 364.993 143.499C364.993 141.452 365.672 139.871 367.03 138.757C368.388 137.622 370.374 137.054 372.988 137.054H378.916ZM376.028 147.482V139.304H373.171C371.367 139.304 370.06 139.649 369.249 140.338C368.459 141.027 368.064 142.081 368.064 143.499C368.064 144.817 368.439 145.81 369.188 146.478C369.959 147.147 370.982 147.482 372.259 147.482H376.028ZM407.83 136.69C409.593 136.69 411.133 137.115 412.451 137.966C413.788 138.797 414.822 140.023 415.551 141.645C416.301 143.266 416.676 145.232 416.676 147.542C416.676 149.812 416.301 151.758 415.551 153.379C414.822 155.001 413.788 156.237 412.451 157.088C411.133 157.939 409.593 158.365 407.83 158.365C406.067 158.365 404.516 157.949 403.179 157.118C401.861 156.287 400.828 155.061 400.078 153.44C399.348 151.819 398.983 149.863 398.983 147.573C398.983 145.323 399.348 143.378 400.078 141.736C400.828 140.094 401.871 138.848 403.209 137.997C404.547 137.125 406.087 136.69 407.83 136.69ZM407.83 139.061C406.006 139.061 404.587 139.75 403.574 141.128C402.56 142.506 402.054 144.654 402.054 147.573C402.054 150.471 402.56 152.599 403.574 153.957C404.607 155.315 406.026 155.994 407.83 155.994C411.68 155.994 413.606 153.177 413.606 147.542C413.606 141.888 411.68 139.061 407.83 139.061ZM430.55 137.054C433.144 137.054 435.151 137.602 436.569 138.696C437.988 139.77 438.697 141.381 438.697 143.53C438.697 145.82 437.958 147.522 436.478 148.637C434.999 149.751 433.033 150.309 430.581 150.309H427.936V158H425.048V137.054H430.55ZM430.459 148.029C432.141 148.029 433.418 147.705 434.289 147.056C435.181 146.407 435.627 145.242 435.627 143.56C435.627 142.06 435.181 140.976 434.289 140.307C433.418 139.638 432.161 139.304 430.52 139.304H427.936V148.029H430.459ZM458.459 137.054L458.033 139.547H449.248V158H446.36V137.054H458.459ZM473.574 158L471.993 152.741H464.059L462.478 158H459.56L466.278 137.054H469.926L476.614 158H473.574ZM464.758 150.4H471.294L468.041 139.456L464.758 150.4ZM495.196 158V148.181H486.38V158H483.492V137.054H486.38V145.81H495.196V137.054H498.084V158H495.196ZM522.485 158H519.597V147.786C519.597 145.414 519.729 142.911 519.993 140.277L511.511 158H507.802V137.054H510.69V147.269C510.69 150.106 510.559 152.639 510.295 154.869L518.868 137.054H522.485V158ZM536.154 158.365C534.836 158.365 533.6 158.132 532.445 157.666C531.29 157.179 530.297 156.47 529.466 155.538L531.168 153.896C532.465 155.254 534.076 155.933 536.002 155.933C537.441 155.933 538.555 155.578 539.346 154.869C540.136 154.159 540.531 153.187 540.531 151.95C540.531 150.714 540.136 149.772 539.346 149.123C538.576 148.454 537.431 148.12 535.911 148.12H533.904L534.299 145.749H535.941C537.157 145.749 538.12 145.445 538.829 144.837C539.559 144.209 539.923 143.357 539.923 142.283C539.923 141.331 539.63 140.561 539.042 139.973C538.474 139.365 537.593 139.061 536.397 139.061C534.735 139.061 533.114 139.709 531.533 141.006L530.013 139.274C531.959 137.551 534.158 136.69 536.61 136.69C538.636 136.69 540.197 137.196 541.291 138.21C542.386 139.203 542.933 140.479 542.933 142.04C542.933 143.317 542.568 144.361 541.839 145.171C541.109 145.962 540.106 146.499 538.829 146.782C540.207 146.924 541.352 147.441 542.264 148.333C543.176 149.225 543.632 150.441 543.632 151.981C543.632 153.237 543.308 154.352 542.659 155.325C542.031 156.277 541.15 157.027 540.015 157.574C538.88 158.101 537.593 158.365 536.154 158.365ZM562.711 158L561.13 152.741H553.196L551.615 158H548.697L555.415 137.054H559.063L565.751 158H562.711ZM553.895 150.4H560.431L557.178 139.456L553.895 150.4ZM586.765 155.629H589.197V162.56H586.917L586.461 158H572.629V137.054H575.517V155.629H583.877V137.054H586.765V155.629ZM611.177 158H608.289V147.786C608.289 145.414 608.421 142.911 608.685 140.277L600.203 158H596.494V137.054H599.382V147.269C599.382 150.106 599.25 152.639 598.987 154.869L607.56 137.054H611.177V158ZM633.236 137.054V158H630.348V149.762H626.092L622.049 158H618.766L623.326 149.245C622.008 148.738 621.005 147.988 620.316 146.995C619.647 146.002 619.313 144.837 619.313 143.499C619.313 141.452 619.992 139.871 621.35 138.757C622.708 137.622 624.694 137.054 627.308 137.054H633.236ZM630.348 147.482V139.304H627.491C625.687 139.304 624.38 139.649 623.569 140.338C622.779 141.027 622.383 142.081 622.383 143.499C622.383 144.817 622.758 145.81 623.508 146.478C624.278 147.147 625.302 147.482 626.579 147.482H630.348Z" fill="#3F3F3F"/>
</svg>
