<svg width="164" height="180" viewBox="0 0 164 180" fill="none" xmlns="http://www.w3.org/2000/svg">
<g clip-path="url(#clip0_474:7067)">
<path d="M65.0394 4.972C61.466 6.10736 45.6231 11.3996 29.798 25.4359C25.9559 28.842 10.4623 42.5853 3.84389 61.0623C-7.4226 92.5136 6.05599 140.373 44.8976 159.6C90.1338 181.996 147.281 154.427 160.312 117.528C166.089 101.166 166.357 74.0274 151.795 56.1272C140.072 41.7246 120.037 34.885 120.808 21.2607C121.184 14.6958 126.02 12.8829 124.677 8.75348C121.488 -1.03441 90.277 -3.06706 65.0394 4.972Z" fill="#CADDFF"/>
<path d="M120.646 32.2263L119.945 31.6111L130.189 19.394L120.12 8.10346L120.806 7.46497L131.423 19.3784L120.646 32.2263Z" fill="#1771E6"/>
<path d="M131.272 20.0014L115.734 15.8122L115.97 14.8934L130.342 18.7711V5.31586H131.272V20.0014Z" fill="#1771E6"/>
<path d="M129.687 35.5355L128.766 35.4421L130.274 20.0481L117.067 24.2995L116.785 23.3963L131.332 18.7166L129.687 35.5355Z" fill="#1771E6"/>
<path d="M138.755 33.4254L129.227 17.6887L143.896 28.1539L143.362 28.9325L132.372 21.0837L139.539 32.9271L138.755 33.4254Z" fill="#1771E6"/>
<path d="M145.477 22.7111L127.922 19.3083L145.797 16.8322L145.919 17.7666L133.695 19.4641L145.653 21.7767L145.477 22.7111Z" fill="#1771E6"/>
<path d="M129.27 21.0292L138.554 5.60394L139.346 6.10228L132.339 17.7354L142.057 10.9377L142.583 11.7164L129.27 21.0292Z" fill="#1771E6"/>
<path d="M138.968 27.8323C143.227 23.4779 143.227 16.4179 138.968 12.0634C134.709 7.70899 127.803 7.70899 123.544 12.0634C119.285 16.4179 119.285 23.4779 123.544 27.8323C127.803 32.1868 134.709 32.1868 138.968 27.8323Z" fill="#1771E6"/>
<path d="M121.616 8.51921C122.012 7.86955 121.817 7.01476 121.182 6.60998C120.547 6.2052 119.71 6.40371 119.315 7.05336C118.919 7.70302 119.113 8.55782 119.748 8.9626C120.384 9.36738 121.22 9.16887 121.616 8.51921Z" fill="#1771E6"/>
<path d="M117.874 16.2083C118.332 15.0664 117.798 13.7611 116.681 13.2929C115.564 12.8246 114.287 13.3707 113.829 14.5126C113.371 15.6545 113.905 16.9598 115.022 17.4281C116.139 17.8963 117.416 17.3502 117.874 16.2083Z" fill="#1771E6"/>
<path d="M118.033 23.8479C118.033 24.4786 117.538 24.9847 116.921 24.9847C116.304 24.9847 115.809 24.4786 115.809 23.8479C115.809 23.2172 116.304 22.7111 116.921 22.7111C117.538 22.7111 118.033 23.225 118.033 23.8479Z" fill="#1771E6"/>
<path d="M120.297 34.2274C121.546 34.2274 122.559 33.192 122.559 31.9148C122.559 30.6376 121.546 29.6022 120.297 29.6022C119.048 29.6022 118.035 30.6376 118.035 31.9148C118.035 33.192 119.048 34.2274 120.297 34.2274Z" fill="#1771E6"/>
<path d="M130.464 35.4888C130.464 36.1896 129.908 36.7502 129.23 36.7502C128.552 36.7502 127.996 36.1818 127.996 35.4888C127.996 34.788 128.552 34.2274 129.23 34.2274C129.908 34.2274 130.464 34.7958 130.464 35.4888Z" fill="#1771E6"/>
<path d="M140.177 33.1762C140.177 33.7524 139.72 34.2274 139.149 34.2274C138.578 34.2274 138.121 33.7602 138.121 33.1762C138.121 32.6 138.578 32.1251 139.149 32.1251C139.72 32.1251 140.177 32.6 140.177 33.1762Z" fill="#1771E6"/>
<path d="M143.634 30.046C144.446 30.046 145.104 29.3732 145.104 28.5432C145.104 27.7132 144.446 27.0404 143.634 27.0404C142.822 27.0404 142.164 27.7132 142.164 28.5432C142.164 29.3732 142.822 30.046 143.634 30.046Z" fill="#1771E6"/>
<path d="M146.659 22.2438C146.659 22.859 146.171 23.3573 145.57 23.3573C144.968 23.3573 144.48 22.859 144.48 22.2438C144.48 21.6287 144.968 21.1304 145.57 21.1304C146.171 21.1304 146.659 21.6287 146.659 22.2438Z" fill="#1771E6"/>
<path d="M147.111 17.2994C147.111 18.008 146.547 18.5842 145.854 18.5842C145.161 18.5842 144.598 18.008 144.598 17.2994C144.598 16.5908 145.161 16.0146 145.854 16.0146C146.547 16.0146 147.111 16.5908 147.111 17.2994Z" fill="#1771E6"/>
<path d="M139.774 5.8531C139.774 6.32029 139.401 6.69405 138.951 6.69405C138.494 6.69405 138.129 6.3125 138.129 5.8531C138.129 5.3859 138.502 5.01215 138.951 5.01215C139.408 5.01215 139.774 5.3859 139.774 5.8531Z" fill="#1771E6"/>
<path d="M131.233 7.19989C132.249 6.95747 132.88 5.91904 132.643 4.88048C132.406 3.84192 131.39 3.19652 130.375 3.43894C129.359 3.68135 128.727 4.71979 128.964 5.75834C129.202 6.7969 130.217 7.4423 131.233 7.19989Z" fill="#1771E6"/>
<path d="M143.078 11.3271C143.078 11.7553 142.735 12.1057 142.316 12.1057C141.897 12.1057 141.555 11.7553 141.555 11.3271C141.555 10.8988 141.897 10.5484 142.316 10.5484C142.743 10.5484 143.078 10.8988 143.078 11.3271Z" fill="#1771E6"/>
<path d="M134.585 25.4987C134.585 26.4097 133.861 27.1494 132.97 27.1494C132.079 27.1494 131.355 26.4097 131.355 25.4987C131.355 24.5876 132.079 23.8479 132.97 23.8479C133.861 23.8479 134.585 24.5876 134.585 25.4987Z" fill="#CADDFF"/>
<path d="M135.703 13.0402C135.703 13.5541 135.292 13.9745 134.789 13.9745C134.286 13.9745 133.875 13.5541 133.875 13.0402C133.875 12.5262 134.286 12.1058 134.789 12.1058C135.292 12.1058 135.703 12.5262 135.703 13.0402Z" fill="#CADDFF"/>
<path d="M130.402 16.9796C130.707 15.6658 129.913 14.3476 128.628 14.0353C127.343 13.723 126.054 14.5348 125.748 15.8485C125.443 17.1622 126.237 18.4804 127.522 18.7928C128.807 19.1051 130.096 18.2933 130.402 16.9796Z" fill="#CADDFF"/>
<path d="M138.683 19.3862C138.683 20.0014 138.195 20.4919 137.601 20.4919C136.999 20.4919 136.52 19.9936 136.52 19.3862C136.52 18.7711 137.007 18.2805 137.601 18.2805C138.203 18.2805 138.683 18.7711 138.683 19.3862Z" fill="#CADDFF"/>
<path d="M115.371 154.711C119.903 159.078 125.841 160.443 129.951 158.19C134.089 155.919 135.396 150.499 135.495 150.069C136.435 145.939 134.644 144.282 135.979 142.515C138.37 139.356 144.997 143.421 148.49 139.869C150.353 137.973 150.55 134.714 150.147 132.672C149.421 128.9 146.439 127.957 146.887 126.116C147.505 123.58 153.228 124.944 156.855 121.035C159.103 118.608 160.249 114.479 158.861 111.439C156.55 106.357 147.711 105.469 144.209 108.619C141.746 110.835 143.134 113.957 140.179 116.393C137.286 118.782 134.698 116.832 132.79 118.938C129.987 122.024 134.205 127.719 131.196 131.344C129.441 133.46 127.47 132.159 125.769 134.219C122.984 137.607 127.023 142.68 125.187 147.651C124.3 150.041 121.891 152.816 115.371 154.711Z" fill="#5479F7"/>
<path d="M117.826 155.306C116.536 155.306 115.246 155.15 113.966 154.839C113.804 154.802 113.706 154.638 113.742 154.473C113.778 154.308 113.939 154.207 114.1 154.244C116.276 154.766 118.488 154.83 120.656 154.436C123.772 153.859 126.387 152.55 128.447 150.545C130.588 148.457 131.421 146.269 132.791 142.643C133.749 140.116 134.054 138.605 134.349 137.149C134.645 135.703 134.922 134.339 135.773 132.114C136.481 130.282 137.788 126.885 140.52 123.543C143.26 120.192 146.995 117.528 151.321 115.843C151.473 115.779 151.643 115.861 151.706 116.017C151.768 116.173 151.688 116.347 151.536 116.411C147.308 118.059 143.654 120.659 140.985 123.928C138.317 127.197 137.027 130.539 136.337 132.333C135.505 134.503 135.227 135.849 134.94 137.268C134.636 138.752 134.331 140.29 133.355 142.854C131.949 146.562 131.107 148.796 128.868 150.975C126.719 153.063 123.996 154.427 120.772 155.022C119.778 155.224 118.802 155.306 117.826 155.306Z" fill="#99B9FF"/>
<path d="M113.769 154.436C115.059 154.647 118.973 155.114 122.797 152.733C123.469 152.312 128.296 149.309 128.296 145.079C128.296 141.508 124.857 140.208 125.528 137.974C126.397 135.117 132.398 136.051 133.535 132.672C134.108 130.951 133.123 128.982 132.792 128.323C131.986 126.721 131.198 126.647 129.451 124.624C129.147 124.276 126.021 120.604 126.773 119.561C127.329 118.791 129.317 120.357 131.556 119.304C131.762 119.213 133.177 118.517 133.705 117.006C134.198 115.605 133.66 114.259 133.195 113.151C131.896 110.057 130.015 109.406 130.257 108.546C130.633 107.246 135.084 108.381 140.897 107.365C144.479 106.733 149.217 105.9 151.16 102.201C152.513 99.6277 152.289 96.0934 150.694 93.7312C147.551 89.089 139.276 89.1989 134.484 92.0281C131.896 93.5572 131.789 95.013 128.905 96.0843C124.812 97.5951 123.182 95.3426 120.262 96.7252C116.322 98.5839 113.984 105.195 115.364 109.965C116.25 113.041 118.346 114.177 117.737 115.614C116.743 117.949 110.76 115.907 109.094 118.727C107.787 120.925 109.981 124.661 110.402 125.384C112.587 129.101 115.749 129.806 115.489 131.253C115.167 133.02 110.402 132.169 109.229 134.65C108.091 137.058 111.029 141.196 113.572 144.795C115.919 148.109 117.594 149.464 117.217 151.277C116.886 152.861 115.167 153.85 113.769 154.436Z" fill="#99B9FF"/>
<path d="M110.241 155.279C109.963 155.279 109.703 155.269 109.462 155.26C109.3 155.251 109.175 155.105 109.184 154.94C109.193 154.775 109.327 154.647 109.498 154.656C111.172 154.757 113.716 154.574 116.34 153.145C116.501 153.063 120.209 151.012 121.964 147.093C123.46 143.742 122.698 140.931 121.633 137.03C121.113 135.135 120.522 132.974 120.119 130.42C119.582 127.069 117.952 116.859 121.677 109.416C123.836 105.103 127.794 101.752 133.446 99.4446C136.705 98.1169 140.53 97.1647 144.506 96.6794C144.667 96.6611 144.819 96.7801 144.837 96.9449C144.855 97.1098 144.739 97.2654 144.578 97.2837C139.41 97.9063 126.881 100.36 122.206 109.69C118.57 116.951 120.173 127.014 120.701 130.319C121.104 132.846 121.686 134.979 122.206 136.866C123.263 140.739 124.096 143.797 122.51 147.349C120.701 151.378 117.038 153.456 116.626 153.685C114.253 154.958 111.96 155.279 110.241 155.279Z" fill="white"/>
<path d="M47.6474 169.763C48.0683 170.624 49.5281 171.869 51.3014 173.105H57.0958C56.4241 172.291 55.6987 171.247 54.9733 169.763C52.806 165.323 53.8896 159.509 56.7018 162.832C59.5229 166.165 59.3079 168.656 59.5856 164.352C59.8543 160.04 55.5196 150.353 55.5196 150.353C54.1673 109.571 70.5476 78.1108 70.5476 78.1108L49.555 70.4563C36.8018 98.474 46.2413 150.353 46.2413 150.353C46.2413 150.353 46.2861 166.989 47.6474 169.763Z" fill="white"/>
<path d="M57.0969 173.408H51.3025C51.2398 173.408 51.1861 173.389 51.1323 173.353C49.7083 172.364 47.8993 170.963 47.3798 169.892C46.0185 167.117 45.9379 151.369 45.9379 150.371C45.8125 149.693 43.5557 136.866 42.8123 120.916C42.1138 105.854 42.669 84.8497 49.2785 70.3189C49.3412 70.1724 49.5024 70.1084 49.6456 70.1633L70.6382 77.8178C70.7188 77.8453 70.7815 77.9094 70.8173 77.9918C70.8442 78.0742 70.8442 78.1657 70.7994 78.2481C70.7547 78.3305 66.6708 86.2506 62.7929 99.0417C59.2195 110.835 55.1177 129.284 55.8073 150.279C56.1924 151.149 60.1419 160.159 59.8822 164.371L59.8733 164.581C59.7479 166.55 59.73 166.852 59.3717 166.943C59.0583 167.017 58.8971 166.742 58.5209 166.064C58.1448 165.387 57.5179 164.261 56.479 163.034C56.1028 162.594 55.3953 161.898 54.8669 162.256C53.9086 162.906 53.6937 166.476 55.2341 169.635C55.8521 170.899 56.5148 171.943 57.3208 172.922C57.3925 173.014 57.4104 173.142 57.3656 173.243C57.3119 173.334 57.2134 173.408 57.0969 173.408ZM51.392 172.803H56.47C55.8073 171.934 55.2431 171 54.7057 169.901C53.2101 166.834 53.1205 162.713 54.5445 161.752C54.9296 161.486 55.7536 161.248 56.9268 162.64C58.0015 163.913 58.6463 165.066 59.0314 165.762C59.0762 165.845 59.121 165.927 59.1657 166C59.2016 165.652 59.2284 165.131 59.2732 164.545L59.2822 164.334C59.5419 160.15 55.2789 150.572 55.2341 150.481C55.2162 150.444 55.2073 150.407 55.2073 150.362C54.5087 129.257 58.6374 110.697 62.2197 98.8494C65.6767 87.4317 69.3128 79.8688 70.1009 78.2848L49.6815 70.8317C43.2243 85.2434 42.6869 105.991 43.3855 120.897C44.1378 137.159 46.4842 150.169 46.5111 150.298C46.5111 150.316 46.52 150.334 46.52 150.353C46.52 150.517 46.5917 166.962 47.8993 169.635C48.2664 170.34 49.5292 171.494 51.392 172.803Z" fill="black"/>
<path d="M89.2765 173.106L89.4646 164.178C89.4646 164.178 90.7542 167.273 92.3305 173.106H122.315C118.759 156.194 113.565 142.515 111.774 138.038C111.362 137.021 110.538 136.234 109.508 135.904C103.812 134.073 83.9478 129.266 63.5015 142.671C62.5343 143.302 61.9163 144.364 61.8357 145.536C61.5671 149.382 61.0387 159.124 61.2805 173.106H89.2765Z" fill="#FFDD2D"/>
<path d="M89.5366 171.612C89.5277 171.612 89.5277 171.612 89.5187 171.612C89.3575 171.603 89.2321 171.456 89.2411 171.291C89.3127 169.964 89.2232 168.572 89.1336 167.235C89.0082 165.276 88.8739 163.252 89.2232 161.311C89.2321 161.238 89.2769 161.174 89.3306 161.128C90.4412 160.203 91.6681 159.361 92.8592 158.555C94.0145 157.768 95.2057 156.962 96.2893 156.065C96.4147 155.964 96.6028 155.982 96.7102 156.11C96.8177 156.239 96.7909 156.431 96.6655 156.541C95.5639 157.456 94.3549 158.271 93.1906 159.068C92.0443 159.846 90.8621 160.652 89.7963 161.531C89.4829 163.362 89.6083 165.312 89.7337 167.198C89.8232 168.563 89.9128 169.964 89.8411 171.337C89.8232 171.484 89.6889 171.612 89.5366 171.612Z" fill="#14171E"/>
<path d="M156.651 43.3267C155.854 40.763 155.558 39.8932 155.101 38.8952C154.627 37.8422 153.91 37.2288 152.97 37.064C151.698 36.8442 150.319 37.5309 149.567 38.007C149.611 37.3203 149.647 36.5329 149.665 35.9744C149.683 35.4067 149.513 32.8888 148.411 31.8175C147.802 31.2315 146.763 30.9385 146.137 31.497C145.528 32.0373 145.734 32.7972 145.957 33.6762C146.217 34.6559 146.566 36.0019 146.083 37.7965C145.886 38.5289 145.689 38.9776 145.492 39.4629C145.259 40.0214 145.017 40.5891 144.757 41.6237C144.301 43.4458 144.829 46.3208 144.847 46.449C146.325 54.0302 143.62 61.0621 141.883 64.5781C139.411 69.559 135.864 73.5145 133.249 74.192C131.53 74.6407 128.601 74.4026 124.454 70.7493C124.392 70.6944 124.311 70.6669 124.23 70.6761C124.15 70.6852 124.078 70.731 124.024 70.7951L113.251 85.7012C113.17 85.8203 113.179 85.9759 113.268 86.0858C113.367 86.1957 115.794 88.8601 120.111 91.0942C122.932 92.55 126.962 93.9875 131.861 93.9875C133.885 93.9875 136.061 93.7403 138.363 93.1452C143.369 91.8541 147.175 88.7594 149.665 83.9341C151.644 80.0977 152.8 75.1809 153.104 69.3026C153.561 60.3388 151.859 51.8236 151.492 50.1297C152.316 49.9558 153.131 49.7269 153.919 49.443C155.701 48.8021 156.06 48.3443 156.597 47.5202C157.197 46.568 157.215 45.1671 156.651 43.3267Z" fill="white"/>
<path d="M131.86 94.2346C126.738 94.2346 122.573 92.6415 119.994 91.3138C115.623 89.0614 113.178 86.3604 113.08 86.2505C112.901 86.0491 112.883 85.7378 113.044 85.518L123.818 70.6119C123.908 70.4837 124.051 70.4013 124.212 70.383C124.364 70.3647 124.526 70.4196 124.642 70.5203C128.699 74.1004 131.529 74.3384 133.195 73.9081C135.738 73.2489 139.222 69.3575 141.658 64.4407C143.387 60.9614 146.064 53.9936 144.605 46.4947C144.578 46.3665 144.049 43.4457 144.515 41.5504C144.775 40.4975 145.026 39.9115 145.267 39.353C145.464 38.8769 145.652 38.4374 145.85 37.7232C146.315 36.011 145.975 34.7017 145.724 33.7494C145.491 32.8613 145.249 31.9457 145.984 31.2956C146.718 30.6364 147.927 30.9568 148.617 31.6252C149.808 32.7789 149.978 35.3609 149.951 35.9927C149.942 36.4047 149.915 36.9632 149.88 37.5218C150.623 37.1097 151.85 36.597 153.023 36.7984C154.062 36.9815 154.841 37.6499 155.352 38.7853C155.808 39.8016 156.113 40.6806 156.91 43.2535C157.501 45.1763 157.474 46.6595 156.82 47.6667C156.274 48.5091 155.871 49.0218 154.008 49.6902C153.292 49.9466 152.549 50.1663 151.814 50.3311C152.262 52.4828 153.811 60.705 153.372 69.3117C153.068 75.2266 151.904 80.1892 149.907 84.0531C147.381 88.9424 143.512 92.0921 138.434 93.4014C136.249 93.9508 134.037 94.2346 131.86 94.2346ZM124.266 70.9232C124.257 70.9232 124.248 70.9324 124.248 70.9324L113.474 85.8385C113.465 85.8477 113.465 85.866 113.474 85.8751C113.572 85.985 115.955 88.6128 120.236 90.8194C122.77 92.1287 126.845 93.6853 131.86 93.6853C133.992 93.6853 136.159 93.4014 138.3 92.8521C143.234 91.5794 146.978 88.5304 149.432 83.7784C151.393 79.9786 152.54 75.0984 152.844 69.266C153.301 60.3204 151.59 51.787 151.241 50.1663C151.223 50.0931 151.241 50.0198 151.277 49.9557C151.313 49.8916 151.375 49.855 151.447 49.8367C152.253 49.6627 153.059 49.4338 153.838 49.1592C155.54 48.5457 155.862 48.1337 156.382 47.3462C156.937 46.4856 156.946 45.1579 156.4 43.4C155.611 40.8546 155.307 39.9939 154.859 38.9959C154.429 38.0345 153.775 37.4668 152.925 37.3203C151.653 37.1006 150.256 37.8788 149.709 38.2268C149.629 38.2817 149.512 38.2817 149.432 38.2268C149.342 38.1718 149.298 38.0803 149.298 37.9704C149.342 37.2654 149.378 36.4871 149.396 35.9469C149.423 35.2144 149.181 32.9254 148.223 31.9915C147.703 31.4879 146.808 31.2407 146.315 31.6802C145.858 32.0922 145.975 32.6416 146.217 33.5755C146.485 34.5918 146.844 35.9744 146.342 37.8331C146.136 38.5839 145.948 39.0417 145.742 39.5269C145.509 40.0763 145.267 40.644 145.017 41.6512C144.578 43.4274 145.106 46.3208 145.115 46.3574C146.611 54.021 143.879 61.117 142.124 64.6604C139.616 69.7054 135.998 73.7158 133.311 74.4117C131.529 74.8695 128.511 74.6406 124.275 70.9049C124.284 70.9232 124.275 70.9232 124.266 70.9232Z" fill="black"/>
<path d="M152.854 48.39C152.845 48.39 152.836 48.39 152.827 48.39C151.098 48.2527 149.97 47.3554 149.818 45.9911L149.8 45.808C149.692 44.81 149.549 43.5648 148.411 41.2574C147.74 39.9023 148.635 38.6937 149.2 38.2359C149.325 38.1352 149.513 38.1535 149.612 38.2909C149.71 38.419 149.692 38.6113 149.558 38.712C149.504 38.7578 148.322 39.7375 148.931 40.9827C150.113 43.3908 150.265 44.7459 150.382 45.7348L150.4 45.9179C150.57 47.4378 152.182 47.7308 152.871 47.7857C153.033 47.7949 153.158 47.9414 153.14 48.1153C153.14 48.271 153.006 48.39 152.854 48.39Z" fill="black"/>
<path d="M120.325 98.2817L133.956 71.3536C131.323 68.1672 126.944 63.5342 120.504 59.4415C118.015 57.8575 105.745 50.322 88.2541 50.5783C76.4772 50.7523 67.9333 54.3415 65.7032 55.3761C59.5595 58.2329 50.2185 62.9483 46.9496 68.9821L43.5195 83.284C48.902 88.4297 63.9479 92.6141 63.9479 92.6141L53.0486 138.193C64.8703 150.417 106.417 144.703 118.785 142.899L114.772 95.8187L120.325 98.2817Z" fill="black"/>
<path d="M114.781 94.8481C114.628 94.8481 114.503 94.7382 114.485 94.5826L113.025 81.9747C113.007 81.8099 113.124 81.6542 113.285 81.6359C113.446 81.6176 113.598 81.7366 113.616 81.9014L115.076 94.5093C115.094 94.6741 114.978 94.8298 114.816 94.8481C114.798 94.8481 114.79 94.8481 114.781 94.8481Z" fill="white"/>
<path d="M64.8687 92.2021C64.806 92.2021 64.7343 92.1838 64.6806 92.1288C64.5552 92.0189 64.5373 91.8358 64.6448 91.6985L67.6002 88.036C67.7077 87.9078 67.8868 87.8895 68.0212 87.9994C68.1465 88.1093 68.1645 88.2924 68.057 88.4297L65.1015 92.0922C65.0388 92.1654 64.9493 92.2021 64.8687 92.2021Z" fill="white"/>
<path d="M78.6809 29.5468C78.6809 29.5468 75.7344 23.4305 74.6956 22.3501C73.6567 21.2697 72.8596 20.1343 75.9136 18.0467C78.9675 15.9591 86.9472 10.383 91.8371 10.4197C96.727 10.4563 100.148 13.6152 98.6436 15.8859C97.139 18.1657 96.4494 19.118 97.6047 19.2645C98.76 19.411 99.4048 20.7386 96.118 22.6797C92.8402 24.63 81.3856 33.0811 78.6809 29.5468Z" fill="black"/>
<path d="M95.3102 47.2089L93.5548 40.7905C97.3611 39.9298 98.4985 34.6376 97.5939 30.5173C96.9402 27.5233 95.2117 20.7111 95.2117 20.7111C91.2353 23.1009 80.4882 23.3481 80.4882 23.3481C80.4882 23.3481 81.6077 25.1701 80.9629 26.0674C80.3181 26.9647 80.7211 30.4074 80.7211 30.4074C80.7211 30.4074 79.3329 29.0707 77.8463 30.0961C77.0134 30.673 77.9627 33.1268 78.6523 34.5002C79.3419 35.8736 80.8106 36.1483 80.8106 36.1483C80.8106 36.1483 81.0525 36.0018 81.554 37.2104L79.9598 45.808C79.3061 49.3331 76.9596 52.2814 73.7266 53.6548L93.0981 60.1648L101.4 52.7117C98.4806 52.2539 96.1073 50.1022 95.3102 47.2089Z" fill="white"/>
<path d="M93.0897 60.4578C93.0628 60.4578 93.027 60.4487 93.0001 60.4395L73.6285 53.9295C73.5121 53.8929 73.4315 53.783 73.4226 53.6548C73.4136 53.5267 73.4942 53.4076 73.6017 53.3618C76.7541 52.025 79.02 49.1775 79.6559 45.744L81.2321 37.2379C80.9903 36.6703 80.838 36.4963 80.7843 36.4414C80.7753 36.4414 80.7574 36.4414 80.7485 36.4414C80.6858 36.4322 79.1185 36.13 78.3752 34.6284C77.7841 33.4473 76.5392 30.6089 77.6676 29.8306C78.6617 29.1439 79.6738 29.382 80.3544 29.7666C80.2649 28.677 80.1842 26.6169 80.7126 25.8752C81.1425 25.2801 80.4887 23.925 80.229 23.4946C80.1753 23.4031 80.1663 23.284 80.2201 23.1925C80.2738 23.1009 80.3634 23.0368 80.4708 23.0368C80.5783 23.0368 91.191 22.7621 95.051 20.4365C95.1316 20.3907 95.2301 20.3815 95.3107 20.4182C95.4003 20.4548 95.463 20.528 95.4809 20.6196C95.4988 20.6837 97.2183 27.4684 97.8632 30.4349C98.508 33.3741 98.096 36.6062 96.8064 38.6663C96.072 39.8383 95.0779 40.6349 93.8957 40.9828L95.5704 47.1082C96.3317 49.8825 98.6244 51.9518 101.41 52.3821C101.526 52.4004 101.616 52.4829 101.651 52.5927C101.687 52.7026 101.651 52.8308 101.562 52.904L93.2598 60.3571C93.233 60.4304 93.1613 60.4578 93.0897 60.4578ZM74.5331 53.6091L93.027 59.8169L100.747 52.8857C98.0065 52.2356 95.7943 50.0931 95.0331 47.2913L93.2777 40.8729C93.2598 40.7905 93.2688 40.7081 93.3046 40.6349C93.3494 40.5616 93.4121 40.5158 93.4927 40.4975C94.6659 40.232 95.6152 39.5178 96.3317 38.3641C97.5318 36.4322 97.9169 33.3741 97.3079 30.5906C96.7526 28.0452 95.3913 22.6431 95.0241 21.169C91.2895 23.1375 83.0949 23.5587 80.9903 23.6411C81.3127 24.2912 81.7515 25.4815 81.2052 26.2506C80.7843 26.8366 80.8738 29.089 81.0171 30.38C81.0351 30.5082 80.9634 30.6272 80.8559 30.6822C80.7485 30.7371 80.6141 30.7188 80.5156 30.6364C80.4619 30.5906 79.2707 29.4827 78.008 30.3525C77.5423 30.673 77.9274 32.4035 78.9125 34.3721C79.4588 35.4617 80.5783 35.7913 80.8201 35.8462C80.8739 35.8462 80.9186 35.8554 80.9724 35.8645C81.1425 35.9195 81.4202 36.1117 81.8232 37.1006C81.8411 37.1555 81.85 37.2196 81.8411 37.2746L80.2469 45.863C79.629 49.2416 77.5064 52.08 74.5331 53.6091Z" fill="black"/>
<path d="M84.4688 31.8083L87.1197 41.056C87.1197 41.056 91.1678 42.7499 95.583 39.7284C98.5922 37.6682 98.019 32.1929 97.3384 29.3362C97.3294 29.3453 94.6695 31.1308 84.4688 31.8083Z" fill="#99B9FF"/>
<path d="M89.9658 41.8434C88.2373 41.8434 87.091 41.3765 87.0014 41.3399C86.9208 41.3032 86.8581 41.23 86.8312 41.1476L84.1803 31.8999C84.1534 31.8084 84.1714 31.7168 84.2251 31.6435C84.2788 31.5703 84.3594 31.5245 84.449 31.5154C94.399 30.8561 97.1484 29.1165 97.1753 29.0981C97.2559 29.0432 97.3544 29.0341 97.444 29.0707C97.5335 29.1073 97.5962 29.1806 97.6231 29.2813C97.9455 30.6364 99.3695 37.5126 95.7423 40.0031C93.5929 41.4589 91.542 41.8434 89.9658 41.8434ZM87.3507 40.8271C88.0672 41.0743 91.6137 42.0815 95.402 39.4812C98.456 37.3936 97.5246 31.6619 97.1216 29.794C96.1185 30.2793 92.8496 31.5245 84.843 32.0922L87.3507 40.8271Z" fill="black"/>
<path d="M90.9592 35.0038C89.7412 35.0038 88.6665 34.7932 87.9142 34.601C87.753 34.5552 87.6634 34.3904 87.6992 34.2347C87.744 34.0699 87.9052 33.9783 88.0575 34.015C89.6158 34.427 92.616 34.8756 95.258 33.2642C95.7058 32.9986 96.1268 32.669 96.5119 32.3119C96.6283 32.202 96.8164 32.2112 96.9328 32.3302C97.0403 32.4493 97.0313 32.6415 96.9149 32.7606C96.494 33.1543 96.0462 33.5022 95.5625 33.7861C94.04 34.7108 92.4011 35.0038 90.9592 35.0038Z" fill="#5479F7"/>
<path d="M91.7381 38.2359C90.3141 38.2359 89.2126 37.9796 89.1141 37.9521C88.9528 37.9155 88.8543 37.7507 88.8902 37.5858C88.926 37.421 89.0872 37.3203 89.2484 37.3569C89.2932 37.3661 93.6815 38.3916 96.225 36.2582C96.3504 36.1483 96.5384 36.1666 96.6459 36.304C96.7534 36.4322 96.7355 36.6244 96.6011 36.7343C95.1772 37.9429 93.2696 38.2359 91.7381 38.2359Z" fill="#5479F7"/>
<path d="M84.4664 32.1105C84.4306 32.1105 84.3947 32.1013 84.3679 32.0922L80.6333 30.6913C80.481 30.6363 80.4004 30.4624 80.4542 30.3067C80.5079 30.1511 80.6781 30.0687 80.8303 30.1236L84.5649 31.5245C84.7171 31.5794 84.7977 31.7534 84.744 31.9091C84.6992 32.0372 84.5828 32.1105 84.4664 32.1105Z" fill="black"/>
<path d="M87.1072 41.3673C87.0445 41.3673 86.9818 41.349 86.9191 41.3032L80.5336 36.13C80.4083 36.0293 80.3814 35.837 80.4889 35.7089C80.5874 35.5807 80.7754 35.5532 80.9008 35.6631L87.2863 40.8363C87.4117 40.937 87.4386 41.1293 87.3311 41.2574C87.2863 41.3215 87.1968 41.3673 87.1072 41.3673Z" fill="black"/>
<path d="M50.1727 19.7681C50.9608 19.997 51.722 20.3266 52.4475 20.7386C60.463 25.3716 55.4208 36.1026 59.2539 43.0521C62.5407 49.0127 60.7943 53.7189 56.4149 58.4343C53.8804 61.1629 51.5071 63.4336 50.7279 67.2608C50.2801 69.4674 50.1816 71.7382 49.6084 73.9173C46.8053 84.6666 34.5894 88.0086 25.0604 85.6738C20.7974 84.63 16.821 82.4234 13.5969 79.3927C9.87122 75.8859 5.14252 69.8795 9.29805 64.8711C10.6414 63.2505 12.5132 62.1975 14.4119 61.3277C17.7166 59.8169 23.3767 58.2695 24.4514 54.1584C25.2574 51.0637 22.9378 47.8132 24.6126 44.8009C25.9291 42.4478 28.8845 41.7244 30.2996 39.4354C31.5176 37.4485 31.0519 34.9031 31.2041 32.5592C31.7504 24.163 42.2557 17.4424 50.1727 19.7681Z" fill="black"/>
<path d="M21.9265 151.854C19.177 151.433 17.5202 137.269 17.0813 111.137C16.7589 91.9091 18.0038 77.4699 20.5025 65.5303C23.8072 66.1346 27.9538 67.4714 31.4734 70.6761C52.2958 89.6201 28.2583 152.806 21.9265 151.854Z" fill="white"/>
<path d="M22.0706 152.165C22.0079 152.165 21.9452 152.165 21.8825 152.147C20.9063 152.001 19.4734 150.7 18.3449 141.169C17.5299 134.302 17.0105 124.194 16.7866 111.137C16.4731 92.6324 17.5657 78.12 20.2077 65.4662C20.2436 65.3106 20.3958 65.2007 20.5481 65.2282C25.017 66.0522 28.7606 67.8102 31.6623 70.4471C40.3764 78.3763 40.7794 93.4473 39.5882 104.691C38.0478 119.203 33.337 133.478 29.4412 141.993C28.0352 145.097 24.5334 152.165 22.0706 152.165ZM21.972 151.552C23.0378 151.708 25.4917 149.245 28.9218 141.746C32.7907 133.276 37.4747 119.084 39.0151 104.636C40.1972 93.5297 39.8121 78.6693 31.2861 70.9141C28.5277 68.4053 24.9812 66.7114 20.7451 65.8874C18.1479 78.4313 17.0821 92.8247 17.3956 111.137C17.6105 124.175 18.1389 134.256 18.945 141.105C19.9838 149.95 21.2824 151.442 21.972 151.552Z" fill="black"/>
<path d="M18.6562 159.857C23.0178 139.612 27.3882 119.377 31.7497 99.1332C39.5234 98.8036 47.2971 98.4831 55.0798 98.1535C60.0592 106.202 65.9253 117.619 69.9465 132.187C72.7408 142.304 74.8902 172.171 75.3738 179.689C56.7724 179.991 32.7886 171.201 18.6562 159.857Z" fill="black"/>
<path d="M74.4597 180C65.7366 180 55.4016 178.031 45.2366 174.424C34.9374 170.771 25.4262 165.68 18.4675 160.095L18.3242 159.976L31.5073 98.8402L32.6178 98.7944L55.2314 97.8513L55.3209 97.9978C61.8856 108.619 66.9009 120.092 70.2235 132.104C73.3044 143.247 75.5612 178.187 75.6597 179.67L75.6777 179.991L75.3642 180C75.0687 180 74.7642 180 74.4597 180ZM18.987 159.737C33.5403 171.357 57.0315 179.588 75.0508 179.396C74.8 175.568 72.6058 142.927 69.6593 132.278C66.3635 120.375 61.4109 109.003 54.9179 98.4739L31.9909 99.4353L18.987 159.737Z" fill="white"/>
<path d="M69.948 65.2465C67.7628 70.7768 65.5865 76.3071 63.4012 81.8465C72.5721 86.7359 77.4351 96.0019 75.7066 103.812C74.6767 108.454 71.1212 113.49 66.2761 115.77C63.2132 117.207 60.5175 117.134 58.6367 117.363C59.604 120.412 61.225 123.241 63.3744 125.723C63.8311 124.944 64.27 123.809 65.2282 122.5C67.4493 119.469 70.6286 118.059 73.0199 117.345C74.4618 116.814 87.2955 111.851 90.5286 99.5453C93.8691 86.8458 85.7103 71.2712 69.948 65.2465Z" fill="white"/>
<path d="M63.3659 126.016C63.2853 126.016 63.2047 125.979 63.142 125.915C60.9299 123.36 59.3178 120.513 58.3506 117.445C58.3237 117.363 58.3327 117.262 58.3864 117.189C58.4312 117.116 58.5118 117.061 58.6014 117.052C58.9865 117.006 59.3984 116.969 59.8373 116.933C61.5747 116.786 63.742 116.612 66.1422 115.486C70.5933 113.398 74.3189 108.674 75.4116 103.739C77.149 95.892 72.0441 86.7908 63.2584 82.112C63.1241 82.0388 63.0614 81.874 63.1241 81.7275L69.6708 65.1275C69.7335 64.9718 69.8947 64.8986 70.047 64.9535C77.561 67.8285 83.8211 73.075 87.6543 79.7315C91.3709 86.1774 92.4904 93.2367 90.8157 99.6094C89.4365 104.838 86.2303 109.37 81.2777 113.087C77.5878 115.852 74.104 117.253 73.1189 117.61C69.7514 118.617 67.1811 120.32 65.4616 122.664C64.8257 123.534 64.4137 124.34 64.0913 124.99C63.9301 125.311 63.7779 125.604 63.6256 125.869C63.5808 125.952 63.4913 126.006 63.4017 126.016C63.3838 126.016 63.3749 126.016 63.3659 126.016ZM59.0313 117.619C59.9448 120.339 61.3777 122.884 63.3211 125.192C63.4017 125.045 63.4823 124.889 63.5629 124.715C63.9033 124.047 64.3242 123.214 64.9869 122.307C66.7781 119.854 69.4559 118.086 72.9308 117.043C73.8801 116.695 77.3013 115.321 80.9194 112.602C85.7646 108.967 88.8991 104.545 90.2335 99.4537C93.7174 86.2231 84.8869 71.4177 70.1007 65.631L63.7689 81.7C68.0946 84.0623 71.6859 87.5691 73.8891 91.5795C76.1012 95.6082 76.8445 99.9756 75.9847 103.867C74.8563 108.976 70.9963 113.865 66.384 116.035C63.8853 117.207 61.6643 117.391 59.8821 117.537C59.5865 117.565 59.2999 117.592 59.0313 117.619Z" fill="black"/>
<path d="M18.9062 66.5558C18.9062 66.5558 21.3064 58.9288 44.1618 59.3866C67.0172 59.8352 73.4296 65.2923 73.4296 65.2923L67.2859 78.7792L70.8682 103.272C70.8682 103.272 67.5635 110.148 59.8167 108.134C52.0699 106.11 38.5286 97.5035 24.1096 106.476L26.3575 76.5451L18.9062 66.5558Z" fill="#FFDD2D"/>
<path d="M62.5562 108.802C61.6875 108.802 60.7561 108.683 59.7441 108.427C58.1947 108.024 56.3856 107.346 54.4691 106.632C46.5521 103.675 35.7065 99.6185 24.2698 106.742C24.1713 106.797 24.0549 106.797 23.9564 106.742C23.8579 106.687 23.8041 106.577 23.8131 106.458L26.0521 76.6367L18.6724 66.7481C18.6097 66.6657 18.5918 66.5649 18.6276 66.4734C18.7261 66.1529 21.3502 58.6449 44.1698 59.0935C66.864 59.533 73.348 64.8253 73.6167 65.0542C73.7242 65.1457 73.7511 65.2922 73.6973 65.4113L67.5894 78.8158L71.1628 103.217C71.1718 103.281 71.1628 103.336 71.1359 103.391C71.1001 103.464 68.4671 108.802 62.5562 108.802ZM37.9186 102.146C44.2146 102.146 49.9553 104.288 54.6661 106.055C56.6543 106.797 58.3649 107.438 59.8874 107.832C66.864 109.654 70.1597 103.959 70.5538 103.208L66.9894 78.8158C66.9804 78.7609 66.9894 78.6968 67.0162 78.6419L73.0525 65.3838C71.8614 64.5506 64.5713 60.0916 44.1519 59.6887C32.5003 59.4598 26.3207 61.3734 23.1951 63.0215C20.3651 64.514 19.4695 66.0522 19.2456 66.51L26.5894 76.3528C26.6342 76.4078 26.6521 76.4902 26.6521 76.5634L24.449 105.918C29.106 103.134 33.6377 102.146 37.9186 102.146Z" fill="black"/>
<path d="M66.5175 128.991C66.4548 128.991 66.3832 128.973 66.3294 128.918C61.4753 124.844 58.3945 119.432 57.6422 113.673C57.4989 112.574 57.4362 111.448 57.4631 110.322C57.4631 110.157 57.6154 110.02 57.7676 110.029C57.9288 110.029 58.0632 110.175 58.0542 110.34C58.0273 111.43 58.09 112.519 58.2244 113.591C58.9587 119.194 61.9679 124.468 66.7056 128.451C66.831 128.561 66.8489 128.744 66.7503 128.881C66.6877 128.955 66.6071 128.991 66.5175 128.991Z" fill="black"/>
<path d="M40.9272 46.5406L39.2793 59.3683L33.8789 59.817C33.8789 59.817 35.4641 68.0208 43.6587 68.5977C51.8533 69.1654 55.7312 63.3054 56.1969 60.2107L50.3667 59.3683L49.3726 46.916L40.9272 46.5406Z" fill="white"/>
<path d="M44.7606 68.9364C44.3934 68.9364 44.0262 68.9272 43.6411 68.8998C35.3122 68.3229 33.6016 59.9634 33.5927 59.881C33.5747 59.7986 33.5927 59.707 33.6464 59.6429C33.7001 59.5697 33.7718 59.5331 33.8613 59.5239L39.0289 59.0936L40.6409 46.5131C40.6588 46.3574 40.7932 46.2384 40.9454 46.2476L49.3908 46.623C49.5431 46.6321 49.6595 46.7512 49.6774 46.8976L50.6536 59.1027L56.2421 59.9085C56.3227 59.9176 56.3943 59.9634 56.4391 60.0275C56.4839 60.0916 56.5018 60.174 56.4928 60.2564C56.0629 63.0765 52.5343 68.9364 44.7606 68.9364ZM34.2464 60.0824C34.4166 60.7417 34.9002 62.2707 35.948 63.8273C37.775 66.5558 40.3812 68.0482 43.677 68.2771C51.5492 68.8174 55.2211 63.3329 55.839 60.4487L50.3222 59.6521C50.1879 59.6338 50.0804 59.5148 50.0715 59.3774L49.1042 47.1906L41.1872 46.8336L39.5752 59.3866C39.5573 59.5239 39.4408 59.6338 39.3065 59.6521L34.2464 60.0824Z" fill="black"/>
<path d="M53.6364 36.835C53.3051 36.7526 52.9558 36.8717 52.6244 37.1372C52.6154 37.064 52.6155 36.9907 52.6065 36.9175V29.1714C44.0447 35.5257 42.4595 31.4604 37.0502 33.2825C37.0502 33.2825 36.9964 36.8808 36.9785 37.1372C36.6471 36.8717 36.2979 36.7618 35.9755 36.8442C35.1426 37.0548 34.7754 38.474 35.1515 40.0031C35.5187 41.4864 36.9875 43.1345 37.8293 43.052C39.1369 46.9617 41.7699 50.322 44.8059 50.322C47.842 50.322 50.475 46.9525 51.7826 43.052C52.6334 43.1345 54.1021 41.4864 54.4604 40.0031C54.8365 38.4648 54.4693 37.0456 53.6364 36.835Z" fill="white"/>
<path d="M44.8054 50.615C41.3663 50.615 38.8049 46.742 37.6138 43.3359C36.557 43.1803 35.1957 41.4498 34.8554 40.0672C34.4345 38.3458 34.8912 36.7984 35.9032 36.5421C36.1629 36.478 36.4316 36.4963 36.7003 36.6153C36.7182 35.7546 36.7451 34.0425 36.763 33.2733C36.763 33.1452 36.8436 33.0353 36.969 32.9895C38.9751 32.3119 40.4886 32.431 41.9484 32.5408C44.4561 32.724 47.0533 32.9254 52.4447 28.9242C52.5343 28.8601 52.6507 28.8509 52.7492 28.8967C52.8478 28.9517 52.9104 29.0524 52.9104 29.1622V36.6062C53.1791 36.4963 53.4568 36.4688 53.7165 36.5329C54.227 36.6611 54.6121 37.1281 54.8001 37.8331C54.9703 38.4832 54.9524 39.2706 54.7643 40.058C54.424 41.4406 53.0717 43.1711 52.0059 43.3268C50.8058 46.742 48.2444 50.615 44.8054 50.615ZM37.8287 42.7408C37.9541 42.7408 38.0706 42.8232 38.1064 42.9422C39.2796 46.4581 41.8141 50.0107 44.8054 50.0107C47.7966 50.0107 50.3222 46.4581 51.5044 42.9422C51.5492 42.8049 51.6745 42.7225 51.8178 42.7408C52.4716 42.814 53.8419 41.3033 54.1822 39.9207C54.3523 39.2248 54.3703 38.5473 54.227 37.9979C54.1016 37.5218 53.8598 37.2013 53.5732 37.1281C53.2866 37.0548 53.009 37.2196 52.8209 37.3753C52.7313 37.4485 52.6149 37.4577 52.5164 37.4119C52.4179 37.3661 52.3462 37.2654 52.3373 37.1555V37.1189C52.3283 37.064 52.3283 36.9999 52.3194 36.9449C52.3194 36.9358 52.3194 36.9266 52.3194 36.9175V29.7574C47.0712 33.5297 44.4471 33.3374 41.9037 33.1452C40.4886 33.0353 39.1453 32.9346 37.3541 33.5022C37.3362 34.3263 37.3003 36.9266 37.2824 37.1555C37.2735 37.2654 37.2108 37.3661 37.1033 37.4119C37.0048 37.4577 36.8884 37.4394 36.7988 37.3753C36.6107 37.2288 36.3331 37.064 36.0465 37.1372C35.4733 37.2837 35.0793 38.4649 35.4375 39.9298C35.7778 41.3124 37.1571 42.814 37.8019 42.7499C37.8108 42.7408 37.8198 42.7408 37.8287 42.7408Z" fill="black"/>
<path d="M38.6211 39.2248L38.9345 45.6341C40.3764 48.326 42.4632 50.322 44.8007 50.322C47.0575 50.322 49.0816 48.4633 50.5145 45.9179L50.7384 39.2339C50.7384 39.2248 46.3948 40.7722 38.6211 39.2248Z" fill="#99B9FF"/>
<path d="M44.8083 50.615C42.5603 50.615 40.3214 48.8479 38.6825 45.7714C38.6645 45.7348 38.6466 45.689 38.6466 45.6432L38.3332 39.234C38.3242 39.1424 38.369 39.0508 38.4317 38.9867C38.5033 38.9227 38.5929 38.8952 38.6825 38.9227C46.2681 40.4334 50.6027 38.9501 50.6475 38.9318C50.7371 38.8952 50.8445 38.9135 50.9162 38.9776C50.9968 39.0325 51.0416 39.1332 51.0326 39.234L50.8087 45.9179C50.8087 45.9637 50.7908 46.0186 50.7729 46.0553C49.1519 48.9578 46.9756 50.615 44.8083 50.615ZM39.2288 45.5425C40.7602 48.3809 42.7932 50.0107 44.7993 50.0107C46.7338 50.0107 48.713 48.4816 50.2176 45.8172L50.4236 39.6277C49.1877 39.9665 45.2292 40.7813 38.9332 39.5911L39.2288 45.5425Z" fill="black"/>
<path d="M50.7359 39.5269C50.6732 39.5269 50.6015 39.5086 50.5478 39.4537C50.4224 39.3438 50.4045 39.1607 50.512 39.0233L53.0107 35.9286C53.1181 35.8004 53.3062 35.7821 53.4316 35.892C53.557 36.0018 53.5749 36.185 53.4674 36.3223L50.9687 39.4171C50.906 39.4903 50.8254 39.5269 50.7359 39.5269Z" fill="black"/>
<path d="M38.6185 39.5269C38.5289 39.5269 38.4483 39.4903 38.3857 39.4171L35.887 36.3223C35.7795 36.1941 35.7974 36.0018 35.9228 35.892C36.0482 35.7821 36.2362 35.8004 36.3437 35.9286L38.8424 39.0233C38.9499 39.1515 38.932 39.3438 38.8066 39.4537C38.7528 39.4995 38.6902 39.5269 38.6185 39.5269Z" fill="black"/>
<path d="M44.7634 43.8303C43.3752 43.8303 41.9512 43.6289 40.5183 43.2169C40.3571 43.1711 40.2675 43.0063 40.3123 42.8415C40.3571 42.6767 40.5183 42.5851 40.6795 42.6309C43.4468 43.4183 46.1336 43.4183 48.6771 42.6309C48.8293 42.5851 48.9995 42.6767 49.0443 42.8323C49.089 42.988 48.9995 43.1619 48.8472 43.2077C47.5218 43.6289 46.1605 43.8303 44.7634 43.8303Z" fill="#5479F7"/>
<path d="M44.7634 46.3758C43.3752 46.3758 41.9512 46.1743 40.5183 45.7623C40.3571 45.7165 40.2675 45.5517 40.3123 45.3869C40.3571 45.2221 40.5183 45.1305 40.6795 45.1763C43.4468 45.9637 46.1336 45.9637 48.6771 45.1763C48.8293 45.1305 48.9995 45.2221 49.0443 45.3777C49.089 45.5334 48.9995 45.7074 48.8472 45.7531C47.5218 46.1743 46.1605 46.3758 44.7634 46.3758Z" fill="#5479F7"/>
<path d="M12.8197 28.1917L12.2734 27.7064L20.3158 18.1108L12.4078 9.23851L12.9451 8.74408L21.2831 18.0925L12.8197 28.1917Z" fill="#99B9FF"/>
<path d="M21.1667 18.5869L8.96875 15.2999L9.14787 14.5766L20.4412 17.6255V7.05939H21.1667V18.5869Z" fill="#99B9FF"/>
<path d="M19.9221 30.792L19.2056 30.7188L20.3878 18.6236L10.0079 21.9655L9.79297 21.2605L21.2207 17.5798L19.9221 30.792Z" fill="#99B9FF"/>
<path d="M27.0407 29.1347L19.5625 16.774L31.0798 24.987L30.6678 25.6005L22.0343 19.4384L27.6586 28.741L27.0407 29.1347Z" fill="#99B9FF"/>
<path d="M32.3272 20.7111L18.5352 18.0467L32.569 16.0964L32.6675 16.8381L23.0668 18.1657L32.4615 19.9878L32.3272 20.7111Z" fill="#99B9FF"/>
<path d="M19.5977 19.3927L26.8877 7.28827L27.5057 7.67283L22.0068 16.8106L29.6372 11.4726L30.0492 12.0861L19.5977 19.3927Z" fill="#99B9FF"/>
<path d="M27.209 24.7306C30.5526 21.3123 30.5526 15.7701 27.209 12.3518C23.8655 8.93347 18.4445 8.93347 15.1009 12.3518C11.7574 15.7701 11.7574 21.3123 15.1009 24.7306C18.4445 28.1489 23.8655 28.1489 27.209 24.7306Z" fill="#99B9FF"/>
<path d="M13.7409 8.99131C13.7409 9.59561 13.2662 10.0809 12.6751 10.0809C12.084 10.0809 11.6094 9.59561 11.6094 8.99131C11.6094 8.38701 12.084 7.90173 12.6751 7.90173C13.2662 7.90173 13.7409 8.39616 13.7409 8.99131Z" fill="#99B9FF"/>
<path d="M10.7777 15.0474C10.8367 14.0783 10.1161 13.2439 9.16824 13.1835C8.22037 13.1232 7.40414 13.8599 7.34513 14.8289C7.28612 15.798 8.00668 16.6325 8.95454 16.6928C9.90241 16.7531 10.7186 16.0165 10.7777 15.0474Z" fill="#99B9FF"/>
<path d="M10.7765 21.6084C10.7765 22.1029 10.3824 22.4966 9.90778 22.4966C9.42417 22.4966 9.03906 22.0937 9.03906 21.6084C9.03906 21.114 9.43312 20.7203 9.90778 20.7203C10.3824 20.7203 10.7765 21.1231 10.7765 21.6084Z" fill="#99B9FF"/>
<path d="M14.3239 27.9444C14.3239 28.9425 13.5268 29.7574 12.5506 29.7574C11.5744 29.7574 10.7773 28.9425 10.7773 27.9444C10.7773 26.9464 11.5744 26.1315 12.5506 26.1315C13.5268 26.1315 14.3239 26.9464 14.3239 27.9444Z" fill="#99B9FF"/>
<path d="M20.5321 30.7554C20.5321 31.3048 20.0933 31.7442 19.5649 31.7442C19.0275 31.7442 18.5977 31.2956 18.5977 30.7554C18.5977 30.206 19.0365 29.7666 19.5649 29.7666C20.1022 29.7574 20.5321 30.206 20.5321 30.7554Z" fill="#99B9FF"/>
<path d="M28.1589 28.9333C28.1589 29.3911 27.8007 29.7574 27.3529 29.7574C26.9051 29.7574 26.5469 29.3911 26.5469 28.9333C26.5469 28.4755 26.9051 28.1093 27.3529 28.1093C27.8007 28.1093 28.1589 28.4847 28.1589 28.9333Z" fill="#99B9FF"/>
<path d="M32.0294 25.2983C32.0294 25.9484 31.5099 26.4795 30.8741 26.4795C30.2382 26.4795 29.7188 25.9484 29.7188 25.2983C29.7188 24.6482 30.2382 24.1172 30.8741 24.1172C31.5099 24.1172 32.0294 24.6482 32.0294 25.2983Z" fill="#99B9FF"/>
<path d="M33.23 20.4837C33.3053 20.0095 32.9903 19.5627 32.5265 19.4858C32.0627 19.4088 31.6256 19.7309 31.5504 20.2051C31.4751 20.6792 31.7901 21.126 32.2539 21.203C32.7177 21.28 33.1548 20.9579 33.23 20.4837Z" fill="#99B9FF"/>
<path d="M32.9962 17.3927C33.4989 17.1799 33.7376 16.5907 33.5294 16.0768C33.3212 15.5628 32.7449 15.3188 32.2422 15.5317C31.7395 15.7445 31.5008 16.3337 31.709 16.8476C31.9173 17.3616 32.4936 17.6056 32.9962 17.3927Z" fill="#99B9FF"/>
<path d="M27.8333 7.58758C27.8904 7.22819 27.6517 6.88956 27.3001 6.83124C26.9486 6.77291 26.6174 7.01697 26.5603 7.37636C26.5033 7.73575 26.742 8.07438 27.0935 8.13271C27.4451 8.19104 27.7763 7.94697 27.8333 7.58758Z" fill="#99B9FF"/>
<path d="M22.2757 7.05937C22.2757 7.89258 21.613 8.57013 20.798 8.57013C19.983 8.57013 19.3203 7.89258 19.3203 7.05937C19.3203 6.22617 19.983 5.54861 20.798 5.54861C21.613 5.53946 22.2757 6.21701 22.2757 7.05937Z" fill="#99B9FF"/>
<path d="M30.4345 11.7748C30.4345 12.1136 30.1658 12.3882 29.8344 12.3882C29.5031 12.3882 29.2344 12.1136 29.2344 11.7748C29.2344 11.436 29.5031 11.1613 29.8344 11.1613C30.1747 11.1705 30.4345 11.4452 30.4345 11.7748Z" fill="#99B9FF"/>
<path d="M22.5011 24.1996C23.1985 24.1996 23.7638 23.6216 23.7638 22.9086C23.7638 22.1956 23.1985 21.6176 22.5011 21.6176C21.8036 21.6176 21.2383 22.1956 21.2383 22.9086C21.2383 23.6216 21.8036 24.1996 22.5011 24.1996Z" fill="#CADDFF"/>
<path d="M24.6442 13.1696C24.6723 12.7661 24.375 12.4157 23.9803 12.387C23.5856 12.3583 23.2429 12.6622 23.2149 13.0657C23.1868 13.4693 23.484 13.8196 23.8787 13.8483C24.2735 13.877 24.6162 13.5731 24.6442 13.1696Z" fill="#CADDFF"/>
<path d="M20.5287 15.7668C20.5287 16.8289 19.6869 17.6805 18.6569 17.6805C17.627 17.6805 16.7852 16.8198 16.7852 15.7668C16.7852 14.7047 17.627 13.8532 18.6569 13.8532C19.6869 13.8532 20.5287 14.7139 20.5287 15.7668Z" fill="#CADDFF"/>
<path d="M26.9868 18.1016C26.9868 18.5778 26.6017 18.9715 26.136 18.9715C25.6703 18.9715 25.2852 18.5778 25.2852 18.1016C25.2852 17.6255 25.6703 17.2318 26.136 17.2318C26.6106 17.2318 26.9868 17.6255 26.9868 18.1016Z" fill="#CADDFF"/>
<path d="M47.6929 165.14C47.6571 165.14 47.6123 165.131 47.5765 165.112C38.6206 161.322 30.6767 156.432 23.9509 150.572C18.5684 145.884 13.9561 140.574 10.2394 134.778C3.90762 124.908 2.35825 116.951 2.34034 116.878C2.31347 116.713 2.41198 116.557 2.57319 116.521C2.73439 116.484 2.88664 116.594 2.92247 116.759C2.94038 116.841 4.47184 124.697 10.7499 134.467C16.5444 143.485 27.6676 156.02 47.7914 164.545C47.9437 164.609 48.0153 164.783 47.9526 164.938C47.9258 165.076 47.8093 165.14 47.6929 165.14Z" fill="black"/>
<path d="M47.1015 167.868C47.0835 167.868 47.0567 167.868 47.0388 167.859C37.5814 165.762 29.127 159.985 23.6998 155.507C17.8247 150.664 14.1259 146.251 14.0901 146.205C13.9826 146.077 14.0005 145.884 14.1259 145.774C14.2513 145.665 14.4394 145.683 14.5468 145.811C14.6901 145.985 29.2793 163.29 47.1642 167.255C47.3254 167.291 47.4239 167.456 47.388 167.612C47.3612 167.767 47.2358 167.868 47.1015 167.868Z" fill="black"/>
<path d="M10.3994 144.905C9.42322 144.905 8.61719 144.09 8.61719 143.083C8.61719 142.918 8.75153 142.78 8.91273 142.78C9.07394 142.78 9.20828 142.918 9.20828 143.083C9.20828 143.751 9.73667 144.291 10.3905 144.291C11.0442 144.291 11.5726 143.751 11.5726 143.083C11.5726 142.414 11.0442 141.874 10.3905 141.874C10.2292 141.874 10.0949 141.737 10.0949 141.572C10.0949 141.407 10.2292 141.27 10.3905 141.27C11.3666 141.27 12.1727 142.085 12.1727 143.092C12.1727 144.099 11.3846 144.905 10.3994 144.905Z" fill="black"/>
<path d="M62.3721 15.4738C61.3959 15.4738 60.5898 14.659 60.5898 13.6518C60.5898 13.487 60.7242 13.3496 60.8854 13.3496C61.0466 13.3496 61.1809 13.487 61.1809 13.6518C61.1809 14.3202 61.7093 14.8604 62.3631 14.8604C63.0169 14.8604 63.5453 14.3202 63.5453 13.6518C63.5453 12.9834 63.0169 12.4432 62.3631 12.4432C62.2019 12.4432 62.0676 12.3058 62.0676 12.141C62.0676 11.9762 62.2019 11.8389 62.3631 11.8389C63.3393 11.8389 64.1453 12.6538 64.1453 13.6609C64.1453 14.6498 63.3483 15.4738 62.3721 15.4738Z" fill="black"/>
<path d="M4.75653 80.1801C4.68489 80.1801 4.60429 80.1526 4.55055 80.0885L3.79826 79.3194C3.68183 79.2004 3.68183 79.0081 3.79826 78.8891C3.91468 78.77 4.10276 78.77 4.21918 78.8891L4.97148 79.6582C5.0879 79.7772 5.0879 79.9695 4.97148 80.0885C4.90878 80.1526 4.82818 80.1801 4.75653 80.1801Z" fill="black"/>
<path d="M7.39716 82.8903C7.32551 82.8903 7.24491 82.8629 7.19117 82.7988L6.43888 82.0296C6.32246 81.9106 6.32246 81.7183 6.43888 81.5993C6.55531 81.4803 6.74338 81.4803 6.85981 81.5993L7.6121 82.3684C7.72852 82.4874 7.72852 82.6797 7.6121 82.7988C7.54941 82.8537 7.47776 82.8903 7.39716 82.8903Z" fill="black"/>
<path d="M3.99643 82.8903C3.92478 82.8903 3.84418 82.8629 3.79044 82.7988C3.67402 82.6797 3.67402 82.4874 3.79044 82.3684L4.54274 81.5993C4.65916 81.4803 4.84724 81.4803 4.96366 81.5993C5.08009 81.7183 5.08009 81.9106 4.96366 82.0296L4.21137 82.7988C4.14868 82.8537 4.07703 82.8903 3.99643 82.8903Z" fill="black"/>
<path d="M6.64487 80.1801C6.57322 80.1801 6.49262 80.1526 6.43888 80.0885C6.32246 79.9695 6.32246 79.7772 6.43888 79.6582L7.19117 78.8891C7.3076 78.77 7.49567 78.77 7.6121 78.8891C7.72852 79.0081 7.72852 79.2004 7.6121 79.3194L6.85981 80.0885C6.79712 80.1526 6.71651 80.1801 6.64487 80.1801Z" fill="black"/>
<path d="M70.7014 8.84485C70.5849 8.84485 70.4685 8.7716 70.4237 8.65257C70.361 8.49692 70.4416 8.32295 70.5939 8.25886C70.6476 8.24055 75.6719 6.23536 83.6695 4.89856C91.0401 3.66249 102.513 2.73772 115.328 5.39299C115.49 5.42962 115.588 5.58527 115.561 5.75008C115.525 5.91489 115.373 6.01561 115.212 5.98814C102.495 3.35118 91.1028 4.26679 83.7859 5.49371C75.851 6.82135 70.8626 8.80823 70.8178 8.82654C70.773 8.83569 70.7372 8.84485 70.7014 8.84485Z" fill="white"/>
</g>
<defs>
<clipPath id="clip0_474:7067">
<rect width="164" height="180" fill="white"/>
</clipPath>
</defs>
</svg>
