<svg xmlns="http://www.w3.org/2000/svg" viewBox="0 0 64 64"><path d="M25.43,29.58h9.32a1,1,0,0,0,1-1V25.91a5.27,5.27,0,0,0-5.26-5.26H25.43a1,1,0,0,0-1,1v6.93A1,1,0,0,0,25.43,29.58Zm1-6.93h4.06a3.26,3.26,0,0,1,3.26,3.26v1.67H26.43Z"/><path d="M58.7,9.06c-2.49,0-4.3,1.55-5.59,2.91a.43.43,0,0,0-.09.1L39.93,30V25c0-4.41-3.14-8-7-8H20.78a1,1,0,0,0-1,1V29.88H10a1,1,0,0,0-1,1V44a1,1,0,0,0,1,1h3.25v1h-2.1a6.85,6.85,0,0,0,0,13.7H39.78a6.85,6.85,0,0,0,0-13.7H37.13V44.68a.73.73,0,0,1,.09-.08l16.35-22V44.12a1,1,0,0,0,.08.38c-1.4.58-2.56,1.31-2.85,2.18-.36,1.09-2.39,2.54-3.58,3.19A1,1,0,0,0,46.73,51a1,1,0,0,0,1,.75h11a1,1,0,0,0,1-1V10.06A1,1,0,0,0,58.7,9.06ZM32.94,19c2.75,0,5,2.69,5,6v7.78L34.4,37.59a15.93,15.93,0,0,0-12.62-7.67V19ZM11,31.88h9.69a14,14,0,0,1,13,8.82l.92,2.3H11Zm33.63,21a4.86,4.86,0,0,1-4.85,4.85H11.15a4.85,4.85,0,0,1,0-9.7H39.78A4.85,4.85,0,0,1,44.63,52.85ZM15.25,46V45H35.13v1ZM54.88,18.68a1,1,0,0,0-1.11.35L36.49,42.23,35.58,40c0-.13-.11-.25-.16-.37L54.59,13.3a7.06,7.06,0,0,1,3.11-2.11V43.25c-.65.15-1.39.34-2.13.57V19.63A1,1,0,0,0,54.88,18.68Zm.69,31.07h-4.7a6.17,6.17,0,0,0,1.82-2.41c.31-.5,2.36-1.33,4.71-2v4.36Z"/><path d="M13.25 49a3.87 3.87 0 1 0 3.87 3.87A3.88 3.88 0 0 0 13.25 49zm0 5.74a1.87 1.87 0 1 1 1.87-1.87A1.87 1.87 0 0 1 13.25 54.72zM21.5 49a3.87 3.87 0 1 0 3.87 3.87A3.88 3.88 0 0 0 21.5 49zm0 5.74a1.87 1.87 0 1 1 1.87-1.87A1.87 1.87 0 0 1 21.5 54.72zM29.6 49a3.87 3.87 0 1 0 3.87 3.87A3.87 3.87 0 0 0 29.6 49zm0 5.74a1.87 1.87 0 1 1 1.87-1.87A1.87 1.87 0 0 1 29.6 54.72zM34 52.85A3.87 3.87 0 1 0 37.85 49 3.87 3.87 0 0 0 34 52.85zM37.85 51A1.87 1.87 0 1 1 36 52.85 1.87 1.87 0 0 1 37.85 51z"/></svg>