<svg width="130" height="27" viewBox="0 0 130 27" fill="none" xmlns="http://www.w3.org/2000/svg">
<path d="M25.4154 16.5839C23.7724 16.5839 22.2906 16.2307 20.97 15.5244C19.6494 14.8027 18.6129 13.8122 17.8605 12.5531C17.1081 11.2786 16.7319 9.85821 16.7319 8.29195C16.7319 6.7257 17.1081 5.31299 17.8605 4.05384C18.6129 2.77934 19.6494 1.78891 20.97 1.08256C22.2906 0.360853 23.7724 0 25.4154 0C27.0584 0 28.5402 0.360853 29.8608 1.08256C31.1814 1.78891 32.2179 2.77166 32.9703 4.03081C33.7227 5.28996 34.0989 6.71034 34.0989 8.29195C34.0989 9.87357 33.7227 11.2939 32.9703 12.5531C32.2179 13.8122 31.1814 14.8027 29.8608 15.5244C28.5402 16.2307 27.0584 16.5839 25.4154 16.5839ZM25.4154 13.9581C26.4903 13.9581 27.4577 13.7201 28.3176 13.2441C29.1775 12.7527 29.8531 12.0771 30.3445 11.2172C30.8359 10.3419 31.0816 9.36684 31.0816 8.29195C31.0816 7.21707 30.8359 6.24968 30.3445 5.38977C29.8531 4.51451 29.1775 3.83887 28.3176 3.36285C27.4577 2.87147 26.4903 2.62579 25.4154 2.62579C24.3405 2.62579 23.3731 2.87147 22.5132 3.36285C21.6533 3.83887 20.9777 4.51451 20.4863 5.38977C19.9949 6.24968 19.7492 7.21707 19.7492 8.29195C19.7492 9.36684 19.9949 10.3419 20.4863 11.2172C20.9777 12.0771 21.6533 12.7527 22.5132 13.2441C23.3731 13.7201 24.3405 13.9581 25.4154 13.9581Z" fill="#1E212C"/>
<path d="M43.352 9.55878H40.3577V16.3536H37.4094V0.230332H40.3577V6.97906H43.4441L48.0738 0.230332H51.2524L45.7474 8.03859L51.4597 16.3536H48.0738L43.352 9.55878Z" fill="#1E212C"/>
<path d="M60.9099 16.5839C59.2669 16.5839 57.7851 16.2307 56.4645 15.5244C55.144 14.8027 54.1075 13.8122 53.355 12.5531C52.6026 11.2786 52.2264 9.85821 52.2264 8.29195C52.2264 6.7257 52.6026 5.31299 53.355 4.05384C54.1075 2.77934 55.144 1.78891 56.4645 1.08256C57.7851 0.360853 59.2669 0 60.9099 0C62.553 0 64.0348 0.360853 65.3553 1.08256C66.6759 1.78891 67.7124 2.77166 68.4648 4.03081C69.2172 5.28996 69.5935 6.71034 69.5935 8.29195C69.5935 9.87357 69.2172 11.2939 68.4648 12.5531C67.7124 13.8122 66.6759 14.8027 65.3553 15.5244C64.0348 16.2307 62.553 16.5839 60.9099 16.5839ZM60.9099 13.9581C61.9848 13.9581 62.9522 13.7201 63.8121 13.2441C64.672 12.7527 65.3477 12.0771 65.839 11.2172C66.3304 10.3419 66.5761 9.36684 66.5761 8.29195C66.5761 7.21707 66.3304 6.24968 65.839 5.38977C65.3477 4.51451 64.672 3.83887 63.8121 3.36285C62.9522 2.87147 61.9848 2.62579 60.9099 2.62579C59.8351 2.62579 58.8677 2.87147 58.0078 3.36285C57.1478 3.83887 56.4722 4.51451 55.9808 5.38977C55.4895 6.24968 55.2438 7.21707 55.2438 8.29195C55.2438 9.36684 55.4895 10.3419 55.9808 11.2172C56.4722 12.0771 57.1478 12.7527 58.0078 13.2441C58.8677 13.7201 59.8351 13.9581 60.9099 13.9581Z" fill="#1E212C"/>
<path d="M86.2279 0.230332V16.3536H83.2797V2.76398H76.9225L76.7843 6.7948C76.7075 9.05205 76.5233 10.887 76.2315 12.2997C75.9398 13.6971 75.4714 14.7643 74.8265 15.5013C74.1816 16.2231 73.2909 16.5839 72.1546 16.5839C71.7554 16.5839 71.2103 16.5071 70.5193 16.3536L70.7266 13.7508C70.9262 13.8122 71.1565 13.843 71.4176 13.843C72.3543 13.843 73.0145 13.2902 73.3984 12.1846C73.7977 11.0636 74.0434 9.30542 74.1355 6.90996L74.3658 0.230332H86.2279Z" fill="#1E212C"/>
<path d="M89.7732 8.75262H96.1074V11.1481H89.7732V8.75262Z" fill="#1E212C"/>
<path d="M107.043 16.5839C105.415 16.5839 103.941 16.2307 102.62 15.5244C101.315 14.8027 100.286 13.8122 99.5339 12.5531C98.7969 11.2939 98.4283 9.87357 98.4283 8.29195C98.4283 6.71034 98.8045 5.28996 99.557 4.03081C100.309 2.77166 101.338 1.78891 102.643 1.08256C103.964 0.360853 105.438 0 107.066 0C108.386 0 109.592 0.230332 110.682 0.690997C111.772 1.15166 112.694 1.81962 113.446 2.69488L111.511 4.51451C110.344 3.25536 108.908 2.62579 107.204 2.62579C106.098 2.62579 105.108 2.87147 104.233 3.36285C103.357 3.83887 102.674 4.50683 102.183 5.36674C101.691 6.22664 101.446 7.20172 101.446 8.29195C101.446 9.38219 101.691 10.3573 102.183 11.2172C102.674 12.0771 103.357 12.7527 104.233 13.2441C105.108 13.7201 106.098 13.9581 107.204 13.9581C108.908 13.9581 110.344 13.3209 111.511 12.0464L113.446 13.889C112.694 14.7643 111.765 15.4322 110.659 15.8929C109.569 16.3536 108.363 16.5839 107.043 16.5839Z" fill="#1E212C"/>
<path d="M126.844 7.96949C127.873 8.24589 128.656 8.72191 129.194 9.39755C129.731 10.0578 130 10.887 130 11.8851C130 13.2978 129.478 14.3958 128.434 15.1789C127.39 15.962 125.877 16.3536 123.896 16.3536H116.249V0.230332H123.459C125.271 0.230332 126.683 0.591185 127.697 1.31289C128.71 2.0346 129.217 3.05574 129.217 4.37631C129.217 5.22086 129.01 5.95024 128.595 6.56446C128.196 7.17868 127.612 7.64703 126.844 7.96949ZM119.197 7.11726H123.205C124.173 7.11726 124.91 6.92532 125.416 6.54143C125.923 6.15754 126.176 5.58939 126.176 4.83697C126.176 4.08456 125.923 3.5164 125.416 3.13252C124.91 2.73327 124.173 2.53365 123.205 2.53365H119.197V7.11726ZM123.804 14.0503C125.923 14.0503 126.983 13.2518 126.983 11.6548C126.983 10.0885 125.923 9.30542 123.804 9.30542H119.197V14.0503H123.804Z" fill="#1E212C"/>
<path d="M11.1821 21.1787V25.2125H10.6259V23.5849C10.4542 23.7137 10.2903 23.8054 10.1341 23.8601C9.98192 23.9147 9.80433 23.942 9.60137 23.942C9.24229 23.942 8.95542 23.8327 8.74075 23.6142C8.52608 23.3956 8.41875 23.1009 8.41875 22.7301V21.1787H8.97493V22.6891C8.97493 23.2082 9.23058 23.4678 9.74189 23.4678C10.0971 23.4678 10.3917 23.3546 10.6259 23.1282V21.1787H11.1821Z" fill="#1E212C"/>
<path d="M15.206 25.2125L14.9016 24.1996H13.3735L13.0691 25.2125H12.507L13.8009 21.1787H14.5035L15.7915 25.2125H15.206ZM13.5082 23.7488H14.7669L14.1405 21.6412L13.5082 23.7488Z" fill="#1E212C"/>
<path d="M18.4698 21.1084C18.7118 21.1084 18.9148 21.1396 19.0787 21.2021C19.2465 21.2645 19.4163 21.366 19.588 21.5065L19.2836 21.8636C19.0377 21.6646 18.7781 21.5651 18.5049 21.5651C18.1693 21.5651 17.898 21.6939 17.6911 21.9515C17.4882 22.2091 17.3867 22.6228 17.3867 23.1926C17.3867 23.7469 17.4882 24.1567 17.6911 24.4221C17.8941 24.6836 18.1634 24.8144 18.4991 24.8144C18.6708 24.8144 18.8211 24.7851 18.9499 24.7265C19.0787 24.668 19.2153 24.586 19.3597 24.4806L19.6349 24.8319C19.51 24.9607 19.3499 25.0681 19.1548 25.1539C18.9596 25.2398 18.7352 25.2827 18.4815 25.2827C18.1537 25.2827 17.8609 25.2027 17.6033 25.0427C17.3496 24.8788 17.1506 24.6407 17.0062 24.3284C16.8656 24.0123 16.7954 23.6337 16.7954 23.1926C16.7954 22.7516 16.8695 22.3749 17.0179 22.0627C17.1662 21.7465 17.3672 21.5085 17.6209 21.3484C17.8746 21.1884 18.1576 21.1084 18.4698 21.1084Z" fill="#1E212C"/>
<path d="M23.3631 21.1787L23.3046 21.6529H22.1863V25.2125H21.6301V21.6529H20.4826V21.1787H23.3631Z" fill="#1E212C"/>
<path d="M26.9613 25.2125V23.3214H25.2635V25.2125H24.7073V21.1787H25.2635V22.8648H26.9613V21.1787H27.5175V25.2125H26.9613Z" fill="#1E212C"/>
<path d="M31.5378 25.2125L31.2334 24.1996H29.7053L29.4009 25.2125H28.8388L30.1327 21.1787H30.8353L32.1233 25.2125H31.5378ZM29.84 23.7488H31.0987L30.4723 21.6412L29.84 23.7488Z" fill="#1E212C"/>
<path d="M35.8248 21.1787V25.2125H35.2686V23.6259H34.449L33.6703 25.2125H33.038L33.9162 23.5263C33.6625 23.4288 33.4693 23.2844 33.3366 23.0931C33.2078 22.9019 33.1434 22.6774 33.1434 22.4198C33.1434 22.0256 33.2741 21.7212 33.5356 21.5065C33.7971 21.2879 34.1796 21.1787 34.6831 21.1787H35.8248ZM35.2686 23.1868V21.6119H34.7183C34.3709 21.6119 34.1191 21.6782 33.963 21.8109C33.8108 21.9437 33.7347 22.1466 33.7347 22.4198C33.7347 22.6735 33.8069 22.8648 33.9513 22.9936C34.0996 23.1224 34.2967 23.1868 34.5426 23.1868H35.2686Z" fill="#1E212C"/>
<path d="M41.3931 21.1084C41.7326 21.1084 42.0293 21.1904 42.283 21.3543C42.5406 21.5143 42.7396 21.7505 42.8801 22.0627C43.0245 22.3749 43.0967 22.7535 43.0967 23.1985C43.0967 23.6356 43.0245 24.0103 42.8801 24.3226C42.7396 24.6348 42.5406 24.8729 42.283 25.0368C42.0293 25.2008 41.7326 25.2827 41.3931 25.2827C41.0535 25.2827 40.7549 25.2027 40.4973 25.0427C40.2436 24.8827 40.0445 24.6465 39.9001 24.3343C39.7596 24.022 39.6894 23.6454 39.6894 23.2043C39.6894 22.7711 39.7596 22.3964 39.9001 22.0803C40.0445 21.7641 40.2456 21.5241 40.5032 21.3601C40.7608 21.1923 41.0574 21.1084 41.3931 21.1084ZM41.3931 21.5651C41.0418 21.5651 40.7686 21.6978 40.5734 21.9632C40.3783 22.2286 40.2807 22.6423 40.2807 23.2043C40.2807 23.7625 40.3783 24.1723 40.5734 24.4338C40.7725 24.6953 41.0457 24.8261 41.3931 24.8261C42.1346 24.8261 42.5054 24.2835 42.5054 23.1985C42.5054 22.1095 42.1346 21.5651 41.3931 21.5651Z" fill="#1E212C"/>
<path d="M45.9462 23.0346L47.1757 25.2125H46.5434L45.6125 23.4268L44.6699 25.2125H44.0728L45.2847 23.0638L44.1781 21.1787H44.8104L45.6242 22.695L46.4439 21.1787H47.041L45.9462 23.0346Z" fill="#1E212C"/>
<path d="M49.5529 21.1787C50.0525 21.1787 50.4389 21.284 50.7121 21.4948C50.9853 21.7017 51.1219 22.012 51.1219 22.4257C51.1219 22.8667 50.9795 23.1946 50.6945 23.4093C50.4096 23.6239 50.031 23.7313 49.5587 23.7313H49.0494V25.2125H48.4932V21.1787H49.5529ZM49.5353 23.2922C49.8593 23.2922 50.1052 23.2297 50.273 23.1048C50.4447 22.9799 50.5306 22.7555 50.5306 22.4315C50.5306 22.1427 50.4447 21.9339 50.273 21.8051C50.1052 21.6763 49.8632 21.6119 49.547 21.6119H49.0494V23.2922H49.5353Z" fill="#1E212C"/>
<path d="M54.3975 25.2125L54.093 24.1996H52.565L52.2605 25.2125H51.6985L52.9924 21.1787H53.6949L54.9829 25.2125H54.3975ZM52.6996 23.7488H53.9584L53.3319 21.6412L52.6996 23.7488Z" fill="#1E212C"/>
<path d="M58.5615 25.2125V23.3214H56.8637V25.2125H56.3075V21.1787H56.8637V22.8648H58.5615V21.1787H59.1177V25.2125H58.5615Z" fill="#1E212C"/>
<path d="M63.2434 25.2125V23.3214H61.5455V25.2125H60.9893V21.1787H61.5455V22.8648H63.2434V21.1787H63.7995V25.2125H63.2434Z" fill="#1E212C"/>
<path d="M67.8198 25.2125L67.5154 24.1996H65.9873L65.6829 25.2125H65.1209L66.4147 21.1787H67.1173L68.4053 25.2125H67.8198ZM66.122 23.7488H67.3807L66.7543 21.6412L66.122 23.7488Z" fill="#1E212C"/>
<path d="M72.1068 21.1787V25.2125H71.5506V23.6259H70.731L69.9523 25.2125H69.32L70.1982 23.5263C69.9445 23.4288 69.7513 23.2844 69.6186 23.0931C69.4898 22.9019 69.4254 22.6774 69.4254 22.4198C69.4254 22.0256 69.5561 21.7212 69.8177 21.5065C70.0792 21.2879 70.4617 21.1787 70.9652 21.1787H72.1068ZM71.5506 23.1868V21.6119H71.0003C70.6529 21.6119 70.4012 21.6782 70.245 21.8109C70.0928 21.9437 70.0167 22.1466 70.0167 22.4198C70.0167 22.6735 70.0889 22.8648 70.2333 22.9936C70.3816 23.1224 70.5787 23.1868 70.8246 23.1868H71.5506Z" fill="#1E212C"/>
<path d="M77.6751 21.1084C78.0146 21.1084 78.3113 21.1904 78.565 21.3543C78.8226 21.5143 79.0216 21.7505 79.1621 22.0627C79.3065 22.3749 79.3788 22.7535 79.3788 23.1985C79.3788 23.6356 79.3065 24.0103 79.1621 24.3226C79.0216 24.6348 78.8226 24.8729 78.565 25.0368C78.3113 25.2008 78.0146 25.2827 77.6751 25.2827C77.3355 25.2827 77.0369 25.2027 76.7793 25.0427C76.5256 24.8827 76.3266 24.6465 76.1821 24.3343C76.0416 24.022 75.9714 23.6454 75.9714 23.2043C75.9714 22.7711 76.0416 22.3964 76.1821 22.0803C76.3266 21.7641 76.5276 21.5241 76.7852 21.3601C77.0428 21.1923 77.3394 21.1084 77.6751 21.1084ZM77.6751 21.5651C77.3238 21.5651 77.0506 21.6978 76.8554 21.9632C76.6603 22.2286 76.5627 22.6423 76.5627 23.2043C76.5627 23.7625 76.6603 24.1723 76.8554 24.4338C77.0545 24.6953 77.3277 24.8261 77.6751 24.8261C78.4166 24.8261 78.7874 24.2835 78.7874 23.1985C78.7874 22.1095 78.4166 21.5651 77.6751 21.5651Z" fill="#1E212C"/>
<path d="M82.0507 21.1787C82.5503 21.1787 82.9367 21.284 83.2099 21.4948C83.4831 21.7017 83.6197 22.012 83.6197 22.4257C83.6197 22.8667 83.4773 23.1946 83.1923 23.4093C82.9074 23.6239 82.5288 23.7313 82.0565 23.7313H81.5472V25.2125H80.991V21.1787H82.0507ZM82.0331 23.2922C82.3571 23.2922 82.603 23.2297 82.7708 23.1048C82.9425 22.9799 83.0284 22.7555 83.0284 22.4315C83.0284 22.1427 82.9425 21.9339 82.7708 21.8051C82.603 21.6763 82.361 21.6119 82.0448 21.6119H81.5472V23.2922H82.0331Z" fill="#1E212C"/>
<path d="M87.4255 21.1787L87.3436 21.6587H85.6516V25.2125H85.0954V21.1787H87.4255Z" fill="#1E212C"/>
<path d="M90.3364 25.2125L90.032 24.1996H88.504L88.1995 25.2125H87.6375L88.9313 21.1787H89.6339L90.9219 25.2125H90.3364ZM88.6386 23.7488H89.8974L89.2709 21.6412L88.6386 23.7488Z" fill="#1E212C"/>
<path d="M94.5005 25.2125V23.3214H92.8027V25.2125H92.2465V21.1787H92.8027V22.8648H94.5005V21.1787H95.0567V25.2125H94.5005Z" fill="#1E212C"/>
<path d="M99.7561 25.2125H99.1999V23.2453C99.1999 22.7887 99.2253 22.3066 99.276 21.7992L97.6426 25.2125H96.9283V21.1787H97.4845V23.1458C97.4845 23.6922 97.4591 24.1801 97.4084 24.6094L99.0594 21.1787H99.7561V25.2125Z" fill="#1E212C"/>
<path d="M102.388 25.2827C102.135 25.2827 101.897 25.2378 101.674 25.1481C101.452 25.0544 101.26 24.9178 101.1 24.7382L101.428 24.4221C101.678 24.6836 101.988 24.8144 102.359 24.8144C102.636 24.8144 102.851 24.7461 103.003 24.6094C103.155 24.4728 103.231 24.2855 103.231 24.0474C103.231 23.8093 103.155 23.6278 103.003 23.5029C102.855 23.3741 102.634 23.3097 102.342 23.3097H101.955L102.031 22.8531H102.347C102.582 22.8531 102.767 22.7945 102.904 22.6774C103.044 22.5564 103.114 22.3925 103.114 22.1856C103.114 22.0022 103.058 21.8539 102.945 21.7407C102.835 21.6236 102.666 21.5651 102.435 21.5651C102.115 21.5651 101.803 21.69 101.499 21.9398L101.206 21.606C101.58 21.2743 102.004 21.1084 102.476 21.1084C102.867 21.1084 103.167 21.206 103.378 21.4011C103.589 21.5924 103.694 21.8383 103.694 22.1388C103.694 22.3847 103.624 22.5857 103.483 22.7418C103.343 22.894 103.15 22.9975 102.904 23.0521C103.169 23.0794 103.39 23.179 103.565 23.3507C103.741 23.5224 103.829 23.7566 103.829 24.0533C103.829 24.2952 103.766 24.5099 103.641 24.6973C103.52 24.8807 103.351 25.0251 103.132 25.1305C102.913 25.232 102.666 25.2827 102.388 25.2827Z" fill="#1E212C"/>
<path d="M107.503 25.2125L107.199 24.1996H105.671L105.366 25.2125H104.804L106.098 21.1787H106.8L108.088 25.2125H107.503ZM105.805 23.7488H107.064L106.437 21.6412L105.805 23.7488Z" fill="#1E212C"/>
<path d="M112.135 24.7558H112.604V26.0907H112.165L112.077 25.2125H109.413V21.1787H109.969V24.7558H111.579V21.1787H112.135V24.7558Z" fill="#1E212C"/>
<path d="M116.837 25.2125H116.281V23.2453C116.281 22.7887 116.306 22.3066 116.357 21.7992L114.723 25.2125H114.009V21.1787H114.565V23.1458C114.565 23.6922 114.54 24.1801 114.489 24.6094L116.14 21.1787H116.837V25.2125Z" fill="#1E212C"/>
<path d="M121.085 21.1787V25.2125H120.529V23.6259H119.709L118.931 25.2125H118.298L119.176 23.5263C118.923 23.4288 118.73 23.2844 118.597 23.0931C118.468 22.9019 118.404 22.6774 118.404 22.4198C118.404 22.0256 118.534 21.7212 118.796 21.5065C119.057 21.2879 119.44 21.1787 119.943 21.1787H121.085ZM120.529 23.1868V21.6119H119.979C119.631 21.6119 119.379 21.6782 119.223 21.8109C119.071 21.9437 118.995 22.1466 118.995 22.4198C118.995 22.6735 119.067 22.8648 119.212 22.9936C119.36 23.1224 119.557 23.1868 119.803 23.1868H120.529Z" fill="#1E212C"/>
<path d="M8.61442 16.5839C6.98674 16.5839 5.51261 16.2307 4.19204 15.5244C2.88683 14.8027 1.85801 13.8122 1.10559 12.5531C0.368531 11.2939 0 9.87357 0 8.29195C0 6.71034 0.376209 5.28996 1.12863 4.03081C1.88105 2.77166 2.90986 1.78891 4.21508 1.08256C5.53565 0.360853 7.00977 0 8.63745 0C9.95802 0 11.1634 0.230332 12.2537 0.690997C13.3439 1.15166 14.2652 1.81962 15.0177 2.69488L13.0829 4.51451C11.9158 3.25536 10.4801 2.62579 8.77565 2.62579C7.67006 2.62579 6.67963 2.87147 5.80437 3.36285C4.92911 3.83887 4.24579 4.50683 3.75441 5.36674C3.26304 6.22664 3.01735 7.20172 3.01735 8.29195C3.01735 9.38219 3.26304 10.3573 3.75441 11.2172C4.24579 12.0771 4.92911 12.7527 5.80437 13.2441C6.67963 13.7201 7.67006 13.9581 8.77565 13.9581C10.4801 13.9581 11.9158 13.3209 13.0829 12.0464L15.0177 13.889C14.2652 14.7643 13.3362 15.4322 12.2306 15.8929C11.1404 16.3536 9.93499 16.5839 8.61442 16.5839Z" fill="#FF5A30"/>
</svg>
