<svg xmlns="http://www.w3.org/2000/svg" viewBox="0 0 48 48"><path d="M44,44V11a3,3,0,0,0-3-3H33V5a3,3,0,0,0-3-3H18a3,3,0,0,0-3,3V8H7a3,3,0,0,0-3,3V44H2v2H46V44ZM6,11a1,1,0,0,1,1-1h8V44H6ZM17,9V5a1,1,0,0,1,1-1H30a1,1,0,0,1,1,1V44H29V35a1,1,0,0,0-1-1H20a1,1,0,0,0-1,1v9H17Zm4,35V36h6v8Zm12,0V10h8a1,1,0,0,1,1,1V44ZM8,38h5v2H8Zm0-6h5v2H8Zm0-6h5v2H8Zm0-6h5v2H8Zm0-6h5v2H8ZM35,38h5v2H35Zm0-6h5v2H35Zm0-6h5v2H35Zm0-6h5v2H35Zm0-6h5v2H35ZM23,32H19V30h4Zm0-6H19V24h4Zm0-6H19V18h4Zm0-6H19V12h4Zm0-6H19V6h4Zm6,24H25V30h4Zm0-6H25V24h4Zm0-6H25V18h4Zm0-6H25V12h4Zm0-6H25V6h4Z" data-name="47 Office, Building, Buildings, City, Town, Village"/></svg>